<svg xmlns="http://www.w3.org/2000/svg" viewBox="0 0 230.8 332.87"><defs><style>.cls-1,.cls-4{fill:#f18a00;}.cls-1,.cls-2{stroke:#f18a00;stroke-miterlimit:10;stroke-width:2.56px;}.cls-2{fill:none;}.cls-3{fill:#fff;}</style></defs><title>adherencia</title><g id="Capa_2" data-name="Capa 2"><g id="Capa_1-2" data-name="Capa 1"><path class="cls-1" d="M1.28,1.28H217.93a11.58,11.58,0,0,1,11.58,11.58V167.42a0,0,0,0,1,0,0H1.28a0,0,0,0,1,0,0V1.28A0,0,0,0,1,1.28,1.28Z"/><path class="cls-2" d="M1.28,165.45H229.52a0,0,0,0,1,0,0V320a11.58,11.58,0,0,1-11.58,11.58H1.28a0,0,0,0,1,0,0V165.45A0,0,0,0,1,1.28,165.45Z"/><path class="cls-3" d="M31.55,42.79A8.19,8.19,0,0,0,35.76,44c2.4,0,3.82-1.26,3.82-3.1,0-1.69-1-2.69-3.45-3.61-3-1.06-4.82-2.62-4.82-5.17,0-2.84,2.36-4.94,5.91-4.94a8.36,8.36,0,0,1,4,.88L40.58,30a6.85,6.85,0,0,0-3.44-.87c-2.5,0-3.45,1.49-3.45,2.73,0,1.69,1.11,2.53,3.63,3.5C40.41,36.53,42,38,42,40.69s-2.06,5.25-6.38,5.25a9.34,9.34,0,0,1-4.66-1.19Z"/><path class="cls-3" d="M53.13,37.11H46.07V43.7H54v2H43.7V27.43h9.85v2H46.07v5.77h7.06Z"/><path class="cls-3" d="M55.52,27.68a25,25,0,0,1,4.53-.39c2.5,0,4.14.48,5.28,1.5a4.56,4.56,0,0,1,1.43,3.46,4.82,4.82,0,0,1-3.44,4.65V37c1.39.49,2.23,1.81,2.68,3.69a31,31,0,0,0,1.4,5H65a23.85,23.85,0,0,1-1.2-4.37c-.54-2.49-1.53-3.46-3.66-3.53H57.87v7.9H55.52ZM57.87,36h2.41c2.52,0,4.11-1.37,4.11-3.46,0-2.37-1.7-3.4-4.19-3.4a9.84,9.84,0,0,0-2.33.21Z"/><path class="cls-3" d="M73,45.66l-6-18.23h2.56l2.83,9c.78,2.45,1.45,4.68,2,6.8h.06c.51-2.11,1.26-4.4,2.07-6.77l3.09-9h2.51L75.63,45.66Z"/><path class="cls-3" d="M85,27.43V45.66H82.62V27.43Z"/><path class="cls-3" d="M100.33,45.07a11.62,11.62,0,0,1-4.81.87c-5.13,0-9-3.25-9-9.23,0-5.72,3.85-9.56,9.51-9.56a9.77,9.77,0,0,1,4.32.8l-.58,1.92a8.65,8.65,0,0,0-3.66-.75c-4.28,0-7.11,2.73-7.11,7.51,0,4.46,2.57,7.31,7,7.31a9.65,9.65,0,0,0,3.86-.74Z"/><path class="cls-3" d="M104.16,27.43V45.66h-2.37V27.43Z"/><path class="cls-3" d="M122.36,36.36c0,6.25-3.81,9.59-8.46,9.59-4.83,0-8.19-3.74-8.19-9.25,0-5.77,3.57-9.57,8.44-9.57S122.36,31,122.36,36.36Zm-14.16.29c0,3.9,2.12,7.39,5.83,7.39s5.84-3.43,5.84-7.58c0-3.62-1.89-7.41-5.81-7.41S108.2,32.66,108.2,36.65Z"/><path class="cls-3" d="M128.16,27.68a32.28,32.28,0,0,1,5-.39c3.37,0,5.79.8,7.39,2.29a8.31,8.31,0,0,1,2.58,6.52,9.69,9.69,0,0,1-2.63,7.09c-1.72,1.7-4.53,2.63-8.06,2.63a37.31,37.31,0,0,1-4.29-.21Zm2.37,16.12a16.37,16.37,0,0,0,2.37.11c5,0,7.76-2.79,7.76-7.72,0-4.31-2.41-7-7.37-7a13.85,13.85,0,0,0-2.76.24Z"/><path class="cls-3" d="M154.12,37.11h-7.06V43.7H155v2H144.69V27.43h9.85v2h-7.48v5.77h7.06Z"/><path class="cls-3" d="M163.71,39.93l-1.88,5.73h-2.44l6.2-18.23h2.83l6.22,18.23h-2.52l-2-5.73Zm6-1.84-1.81-5.25c-.39-1.19-.67-2.27-.94-3.32h-.06c-.26,1.06-.55,2.18-.9,3.29l-1.8,5.28Z"/><path class="cls-3" d="M175.82,27.68a32.07,32.07,0,0,1,5-.39c3.37,0,5.78.8,7.38,2.29a8.31,8.31,0,0,1,2.58,6.52,9.69,9.69,0,0,1-2.62,7.09c-1.72,1.7-4.54,2.63-8.07,2.63a37.12,37.12,0,0,1-4.28-.21Zm2.36,16.12a16.37,16.37,0,0,0,2.37.11c5,0,7.76-2.79,7.76-7.72,0-4.31-2.41-7-7.37-7a13.85,13.85,0,0,0-2.76.24Z"/><path class="cls-3" d="M197.78,35.45v1.74h-6.67V35.45Z"/><path class="cls-3" d="M34.22,59.89v7.63H43V59.89H45.4V78.11H43V69.56H34.22v8.55H31.86V59.89Z"/><path class="cls-3" d="M57.43,69.57H50.37v6.58h7.9v2H48V59.89h9.85v2H50.37v5.77h7.06Z"/><path class="cls-3" d="M59.82,60.14a24.92,24.92,0,0,1,4.53-.4c2.5,0,4.14.48,5.28,1.5a4.57,4.57,0,0,1,1.43,3.47,4.8,4.8,0,0,1-3.44,4.64v.07c1.39.49,2.23,1.8,2.68,3.69a30.49,30.49,0,0,0,1.4,5H69.26a23.91,23.91,0,0,1-1.2-4.36c-.54-2.5-1.53-3.46-3.66-3.54H62.17v7.9H59.82Zm2.35,8.29h2.41c2.52,0,4.11-1.37,4.11-3.46,0-2.36-1.7-3.39-4.19-3.4a10.42,10.42,0,0,0-2.33.21Z"/><path class="cls-3" d="M82.32,69.57H75.25v6.58h7.9v2H72.88V59.89h9.86v2H75.25v5.77h7.07Z"/><path class="cls-3" d="M84.7,78.11V59.89h2.59l5.84,9.21A53,53,0,0,1,96.38,75l.06,0c-.21-2.43-.26-4.65-.26-7.47V59.89H98.4V78.11H96l-5.79-9.24a58.67,58.67,0,0,1-3.39-6.1l-.08,0c.14,2.31.17,4.51.17,7.52v7.79Z"/><path class="cls-3" d="M113.75,77.53a11.85,11.85,0,0,1-4.82.87c-5.13,0-9-3.25-9-9.24,0-5.71,3.86-9.56,9.51-9.56a9.78,9.78,0,0,1,4.33.81l-.58,1.91a8.7,8.7,0,0,0-3.67-.75c-4.28,0-7.11,2.73-7.11,7.52,0,4.46,2.57,7.31,7,7.31a9.54,9.54,0,0,0,3.86-.75Z"/><path class="cls-3" d="M117.58,59.89V78.11h-2.37V59.89Z"/><path class="cls-3" d="M123.14,72.38l-1.88,5.73h-2.44L125,59.89h2.83l6.22,18.22h-2.51l-2-5.73Zm6-1.84-1.81-5.24c-.39-1.19-.67-2.28-.93-3.33h-.07c-.26,1.07-.54,2.18-.9,3.3l-1.8,5.27Z"/><path class="cls-4" d="M52.27,240.31q11.5-14.28,23-28.56a2.46,2.46,0,0,1,3.68-.54c3.57,2.25,7.15,4.49,10.69,6.8a16.62,16.62,0,0,0,5.17,2.32c3.47.87,6.9,1.88,10.37,2.77a3.66,3.66,0,0,0,1.83,0c3.8-1,7.57-2.17,11.36-3.21a10.32,10.32,0,0,1,2.7-.4c5,0,10,0,14.95-.05a5,5,0,0,0,2.43-.72c3.9-2.4,7.74-4.89,11.61-7.35,1.81-1.15,2.86-1,4.18.76l19.62,25.49c1.45,1.88,1.36,2.89-.47,4.47-3.44,3-6.9,5.93-10.32,8.92a5.06,5.06,0,0,0-1.2,1.59Q158.4,259.77,155,267a2,2,0,0,0-.08,1.5c2.77,5.9-.69,12-7.16,12.52a3,3,0,0,0-.32.08c-1.25,5.87-3.29,7.93-8.67,8.63-.54,5.14-3.35,8.12-8.59,8.65-1.7,8.55-7.73,10.89-15.19,5.76-2.36,2.85-5.35,4.37-9.13,3.49s-5.86-3.45-6.61-7.29a9.18,9.18,0,0,1-6.86-2.11,8.93,8.93,0,0,1-3-6.39c-6.55-1.84-8.68-4.31-8.49-9.87a7.14,7.14,0,0,0-.74-.24A8.45,8.45,0,0,1,75,268.48a1.28,1.28,0,0,0,0-1.83c-3.17-4.2-6.27-8.45-9.43-12.65a13.68,13.68,0,0,0-1.93-1.95c-3.19-2.77-6.41-5.51-9.6-8.28-.62-.54-1.15-1.19-1.72-1.78Zm41,28.79a8.86,8.86,0,0,1,7.23,1.81,8.63,8.63,0,0,1,3.08,6.7,8.42,8.42,0,0,1,6.68,3.16,8.9,8.9,0,0,1,1.75,7.12c.16.1.23.17.3.18a8.54,8.54,0,0,1,6.17,11.74,1,1,0,0,0,0,.85,3.88,3.88,0,0,0,4.1,1.21,3.49,3.49,0,0,0,2.49-3.29,3.92,3.92,0,0,0-1.32-3.08c-1.75-1.75-3.55-3.46-5.19-5.31a3.3,3.3,0,0,1-.82-2.31c.28-2,2.62-2.63,4.13-1.16,1.84,1.77,3.6,3.62,5.4,5.44a3.66,3.66,0,1,0,5.35-5c-2.37-2.53-4.87-4.95-7.31-7.42-1-1.05-2.09-2.08-3.1-3.15a2.06,2.06,0,0,1-.49-2.52,3.17,3.17,0,0,1,1.93-1.49,3.5,3.5,0,0,1,2.37,1c3.31,3.23,6.54,6.55,9.79,9.84a3.69,3.69,0,0,0,3.64,1.29c3-.72,3.87-4.09,1.63-6.36-4.92-5-9.88-10-14.82-15a6.33,6.33,0,0,1-.93-1.08,2.32,2.32,0,0,1,2-3.58,3.75,3.75,0,0,1,2.15,1c4.84,4.81,9.62,9.68,14.43,14.52a9.43,9.43,0,0,0,1.32,1.21,3.61,3.61,0,0,0,5.73-2.83,4.1,4.1,0,0,0-1.45-3.15q-13.72-13.69-27.44-27.39a3.29,3.29,0,0,0-1.87-.82c-2.86-.26-5.73-.36-8.59-.61a1.33,1.33,0,0,0-1.48.82c-1.8,3.24-3.61,6.47-5.48,9.67A8.5,8.5,0,0,1,89.8,243c2.78-5.11,5.71-10.13,8.57-15.19.22-.4.43-.8.67-1.27-2.07-.56-4-1-5.9-1.63a1.44,1.44,0,0,0-1.82.58c-5.31,6.53-10.66,13-16,19.53-1.82,2.21-3.63,4.42-5.46,6.67l4.61,6.21q2.31,3.11,4.61,6.22A8.67,8.67,0,0,1,93.27,269.1Zm57.72-5c2-4.24,3.94-8.35,5.95-12.41a1.86,1.86,0,0,0-.27-2.31q-9.55-12-19-24.16a2.19,2.19,0,0,0-2-.93c-4.71,0-9.42,0-14.12,0a7,7,0,0,0-1.88.25q-7.9,2.25-15.8,4.56a1.79,1.79,0,0,0-1,.7c-3,5.18-5.95,10.36-8.79,15.61a4.38,4.38,0,0,0-.16,2.85,3.11,3.11,0,0,0,2.86,2.36,3.56,3.56,0,0,0,3.78-2c2.14-3.77,4.3-7.54,6.4-11.33a2.85,2.85,0,0,1,3-1.61c4,.31,8,.55,12,.8a4.07,4.07,0,0,1,2.71,1.31q12.58,12.63,25.2,25.23ZM87.55,222.42l-9.66-6.14L58.05,240.86l8.42,7.24Zm54.14,0,19,24.16,8.41-7.27-17.75-23ZM89.82,286.82a5.48,5.48,0,0,0,1.84-.86c2.12-2,4.21-4,6.17-6.16a3.58,3.58,0,0,0-.25-5,3.55,3.55,0,0,0-5,0c-2,1.92-4,3.9-5.92,5.92a3.4,3.4,0,0,0-.57,4C86.75,286.08,87.89,286.72,89.82,286.82Zm8.27,8.8a7.22,7.22,0,0,0,2.1-1c2.15-2,4.27-4.07,6.26-6.24a3.61,3.61,0,0,0-5.21-5c-2.06,1.93-4.06,3.94-6,6a3.39,3.39,0,0,0-.56,3.91A3.92,3.92,0,0,0,98.09,295.62Zm6,3.45a3.61,3.61,0,0,0,1.94,3.54,3.2,3.2,0,0,0,3.71-.26,30.18,30.18,0,0,0,3.86-3.89,3.51,3.51,0,0,0-.31-4.51,3.33,3.33,0,0,0-4.34-.68,36.79,36.79,0,0,0-4.4,4.34A3.21,3.21,0,0,0,104.14,299.07ZM82,277.18a6.93,6.93,0,0,0,2-.86,31,31,0,0,0,3.63-3.62,3.6,3.6,0,0,0-.42-5,3.65,3.65,0,0,0-5,.16c-1,1-2.07,2-3,3a3.48,3.48,0,0,0-.62,4A3.77,3.77,0,0,0,82,277.18Z"/><path class="cls-4" d="M100.18,215a5.69,5.69,0,0,1-1.47-.88q-8.07-8-16.07-16a2.43,2.43,0,1,1,3.4-3.45q8.05,8,16.07,16.05a2.38,2.38,0,0,1,.7,2.81A2.5,2.5,0,0,1,100.18,215Z"/><path class="cls-4" d="M126.5,215.31c-.8-.61-1.7-1-2-1.65a4.36,4.36,0,0,1,0-2.35c0-.3.4-.57.65-.82l15.72-15.73a2.55,2.55,0,0,1,2.87-.92,2.38,2.38,0,0,1,1.17,3.7,6.05,6.05,0,0,1-.73.79q-7.72,7.74-15.48,15.46A16.49,16.49,0,0,1,126.5,215.31Z"/><path class="cls-4" d="M116,205.74c0,2.15,0,4.3,0,6.45,0,1.75-.91,2.76-2.43,2.74s-2.36-1-2.36-2.68c0-4.34,0-8.68,0-13a2.44,2.44,0,0,1,2.37-2.72c1.46,0,2.42,1.07,2.43,2.77C116,201.44,116,203.59,116,205.74Z"/><path class="cls-4" d="M115.94,189.27a2.39,2.39,0,1,1-2.46-2.34A2.32,2.32,0,0,1,115.94,189.27Z"/></g></g></svg>