<svg xmlns="http://www.w3.org/2000/svg" viewBox="0 0 230.8 332.87"><defs><style>.cls-1,.cls-4{fill:#f18a00;}.cls-1,.cls-2{stroke:#f18a00;stroke-miterlimit:10;stroke-width:2.56px;}.cls-2{fill:none;}.cls-3{fill:#fff;}</style></defs><title>atencion-usuario</title><g id="Capa_2" data-name="Capa 2"><g id="Capa_1-2" data-name="Capa 1"><path class="cls-1" d="M1.28,1.28h216.9a11.34,11.34,0,0,1,11.34,11.34v154.8a0,0,0,0,1,0,0H1.28a0,0,0,0,1,0,0V1.28A0,0,0,0,1,1.28,1.28Z"/><path class="cls-2" d="M1.28,165.45H229.52a0,0,0,0,1,0,0v154.8a11.34,11.34,0,0,1-11.34,11.34H1.28a0,0,0,0,1,0,0V165.45A0,0,0,0,1,1.28,165.45Z"/><path class="cls-3" d="M29.78,39.93,27.9,45.66H25.46l6.19-18.23h2.83l6.23,18.23H38.19l-1.95-5.73Zm6-1.84L34,32.84c-.4-1.19-.67-2.27-.94-3.32H33c-.26,1.06-.55,2.18-.91,3.29l-1.79,5.28Z"/><path class="cls-3" d="M43.28,29.42H37.73v-2h13.5v2H45.65V45.66H43.28Z"/><path class="cls-3" d="M61.19,37.11H54.12V43.7H62v2H51.76V27.43h9.85v2H54.12v5.77h7.07Z"/><path class="cls-3" d="M63.58,45.66V27.43h2.58L72,36.64a53.07,53.07,0,0,1,3.25,5.94l.06,0c-.21-2.43-.25-4.66-.25-7.48V27.43h2.21V45.66H74.88l-5.79-9.24a58.67,58.67,0,0,1-3.39-6.1l-.08,0c.14,2.3.17,4.5.17,7.51v7.8Z"/><path class="cls-3" d="M92.62,45.07a11.62,11.62,0,0,1-4.81.87c-5.14,0-9-3.25-9-9.23,0-5.72,3.86-9.56,9.52-9.56a9.77,9.77,0,0,1,4.32.8l-.58,1.92a8.7,8.7,0,0,0-3.67-.75c-4.28,0-7.1,2.73-7.1,7.51,0,4.46,2.56,7.31,7,7.31a9.68,9.68,0,0,0,3.86-.74Z"/><path class="cls-3" d="M96.45,27.43V45.66H94.08V27.43Z"/><path class="cls-3" d="M114.64,36.36c0,6.25-3.81,9.59-8.45,9.59C101.35,46,98,42.21,98,36.7c0-5.77,3.57-9.57,8.44-9.57S114.64,31,114.64,36.36Zm-14.15.29c0,3.9,2.11,7.39,5.83,7.39s5.83-3.43,5.83-7.58c0-3.62-1.89-7.41-5.8-7.41S100.49,32.66,100.49,36.65Zm9.77-13.42-3.44,3.16h-1.93l2.5-3.16Z"/><path class="cls-3" d="M116.21,45.66V27.43h2.58l5.84,9.21a53.07,53.07,0,0,1,3.25,5.94l.06,0c-.21-2.43-.25-4.66-.25-7.48V27.43h2.21V45.66h-2.39l-5.79-9.24a58.67,58.67,0,0,1-3.39-6.1l-.08,0c.14,2.3.17,4.5.17,7.51v7.8Z"/><path class="cls-3" d="M139.72,39.93l-1.89,5.73h-2.44l6.2-18.23h2.83l6.23,18.23h-2.52l-1.95-5.73Zm6-1.84-1.8-5.25c-.4-1.19-.67-2.27-.94-3.32h-.06c-.27,1.06-.55,2.18-.91,3.29l-1.79,5.28Z"/><path class="cls-3" d="M151.82,27.43h2.37V43.67H162v2H151.82Z"/><path class="cls-3" d="M29.18,59.89v10.8c0,4.06,1.8,5.79,4.26,5.79,2.68,0,4.43-1.79,4.43-5.79V59.89h2.37V70.52c0,5.6-3,7.89-6.9,7.89-3.72,0-6.53-2.12-6.53-7.79V59.89Z"/><path class="cls-3" d="M42.53,75.24a8.18,8.18,0,0,0,4.2,1.18c2.41,0,3.83-1.25,3.83-3.1,0-1.69-1-2.68-3.45-3.61-3-1-4.82-2.61-4.82-5.16,0-2.84,2.36-4.95,5.91-4.95a8.39,8.39,0,0,1,4,.88l-.66,1.93a7,7,0,0,0-3.44-.86c-2.5,0-3.45,1.48-3.45,2.72,0,1.7,1.11,2.53,3.62,3.5,3.1,1.22,4.65,2.7,4.65,5.37s-2.06,5.26-6.37,5.26a9.39,9.39,0,0,1-4.66-1.19Z"/><path class="cls-3" d="M57,59.89v10.8c0,4.06,1.81,5.79,4.27,5.79,2.68,0,4.43-1.79,4.43-5.79V59.89h2.36V70.52c0,5.6-2.94,7.89-6.89,7.89-3.72,0-6.53-2.12-6.53-7.79V59.89Z"/><path class="cls-3" d="M72.73,72.38l-1.89,5.73H68.4l6.2-18.22h2.83l6.23,18.22H81.14l-2-5.73Zm6-1.84-1.8-5.24C76.51,64.11,76.24,63,76,62h-.06c-.27,1.07-.55,2.18-.91,3.3l-1.79,5.27Z"/><path class="cls-3" d="M84.83,60.14a24.92,24.92,0,0,1,4.53-.4c2.5,0,4.15.48,5.28,1.5a4.57,4.57,0,0,1,1.43,3.47,4.81,4.81,0,0,1-3.43,4.64v.07c1.39.49,2.23,1.8,2.67,3.69a30.49,30.49,0,0,0,1.4,5H94.27a23.91,23.91,0,0,1-1.2-4.36c-.54-2.5-1.53-3.46-3.66-3.54H87.19v7.9H84.83Zm2.36,8.29h2.4c2.52,0,4.12-1.37,4.12-3.46,0-2.36-1.71-3.39-4.19-3.4a10.28,10.28,0,0,0-2.33.21Z"/><path class="cls-3" d="M100.26,59.89V78.11H97.9V59.89Z"/><path class="cls-3" d="M118.46,68.82c0,6.25-3.81,9.59-8.46,9.59-4.83,0-8.19-3.74-8.19-9.25,0-5.78,3.57-9.57,8.44-9.57S118.46,63.4,118.46,68.82Zm-14.16.28c0,3.9,2.12,7.39,5.83,7.39S116,73.06,116,68.92c0-3.63-1.89-7.42-5.81-7.42S104.3,65.12,104.3,69.1Z"/><path class="cls-4" d="M55.66,258.09c.81-2,1.93-3.63,4.14-4.16a9.53,9.53,0,0,1,2.26-.23c14.59,0,29.18.05,43.77,0,4.64,0,6.7,3.31,6.54,6.61-.14,3,0,5.94,0,8.91a.89.89,0,0,0,0,.17l16.89-4c0-1.06,0-2.05,0-3a2.08,2.08,0,0,0-.51-1c-.83-1-1.78-1.89-2.51-2.94a1.71,1.71,0,0,0-1.69-.85,10,10,0,0,1-7-2.24,9.46,9.46,0,0,1-2.13-11.89,4.74,4.74,0,0,0,.58-2.12c.19-3.45-.11-7,.51-10.35,1.74-9.41,7.45-15.54,16.67-18a22.42,22.42,0,0,1,27.72,17.48c.65,3.43.34,7,.56,10.58a6.08,6.08,0,0,0,.67,2.55,9.38,9.38,0,0,1-7.58,13.86c-1.86.09-3.41.35-4.24,2.22a.9.9,0,0,1-.29.35c-2,1.31-2.07,3.24-1.67,5.48,2.24.52,4.6,1,6.94,1.61,2.73.66,5.5,1.21,8.18,2a12.82,12.82,0,0,1,9.22,12.48c0,8.34,0,16.68,0,25H72.58v-3.87h3.76V299H61.41a5.35,5.35,0,0,1-4.32-1.95,18.42,18.42,0,0,1-1.43-2.39Zm35.89,37c.4,0,.7.05,1,.05h13.6c1.72,0,2.34-.62,2.34-2.34V259.91c0-1.75-.63-2.41-2.42-2.41H62c-1.86,0-2.45.61-2.45,2.47v32.8c0,1.83.56,2.39,2.37,2.39H75.36c.33,0,.65-.05,1.07-.08,0-1,0-2,0-2.92a11.71,11.71,0,0,1,.2-2.38A7.54,7.54,0,0,1,85.09,284a7.65,7.65,0,0,1,6.45,7.69C91.56,292.78,91.55,293.92,91.55,295.11Zm65.89-55.92c0-2.08.14-4.22,0-6.33C156.54,222,145.63,214,135,216.35s-16.47,11.5-15,22.86l3.59-.75v-3.59h3.85v3.62a11.28,11.28,0,0,0,8.15-3.23c.73.79,1.43,1.5,2,2.26a1,1,0,0,0,1.49.29l4.23-2.36c.55.61,1.24,1.41,2,2.17a1.12,1.12,0,0,0,.74.37,5.69,5.69,0,0,0,4.13-3.15h3.65c0,1,0,2,0,3a1,1,0,0,0,.54.78C155.46,238.88,156.51,239,157.44,239.19Zm2.08,42.86v20.6h9.29c0-.24.05-.42.05-.6,0-6.89,0-13.78,0-20.67a9,9,0,0,0-6.58-8.73c-1.78-.54-3.61-.9-5.42-1.32l-5.08-1.18c-.76,3.77-1.5,7.38-2.25,11.11l-4.11-2.43a20.21,20.21,0,0,0-.78,4.4c.17,4.14.58,8.27.92,12.4.2,2.34.43,4.67.64,7h9.57V282.05Zm-31.66-.75c-.64-3.81-1.25-7.45-1.89-11.22-2.77.64-5.44,1.21-8.08,1.9-1.53.39-3,.94-4.53,1.46-.81.29-1,.87-1,1.77,0,5.94,0,11.89,0,17.83a5.74,5.74,0,0,1-3.11,5.33c-.27.15-.65.42-.66.66-.07,1.2,0,2.4,0,3.61h9.4V282.07h3.85v20.58h9.45a3.88,3.88,0,0,0,.09-.39c.45-5.23.91-10.47,1.34-15.7.21-2.55.69-5.14-.91-7.55Zm-.43-38.73c0,2.45-.08,5,0,7.46a10.91,10.91,0,0,0,6.61,10.11,10.7,10.7,0,0,0,11.59-1.35,15.06,15.06,0,0,0,1.19-1.08l-.12-.24h-8v-3.78c3.21,0,6.32,0,9.44,0,.87,0,1.4-.17,1.44-1.11.2-4,.4-7.93.61-12.06a7.42,7.42,0,0,0-.85.26,15,15,0,0,1-7.84,1.55,4.07,4.07,0,0,1-1.28-.56c-2,.19-4.13.42-6.28.55-.4,0-.83-.34-1.52-.66Zm9.28,41.4c-.52,6.26-1,12.44-1.55,18.68h7.14c-.52-6.26-1-12.45-1.56-18.68ZM80.28,302.63h7.41c0-3.77,0-7.46,0-11.14a3.62,3.62,0,0,0-3.52-3.73,3.5,3.5,0,0,0-3.86,3.46C80.21,295,80.28,298.75,80.28,302.63Zm43.46-60.09a5.44,5.44,0,0,0-5.69,6,5.37,5.37,0,0,0,5.69,5Zm30,11.07a5.55,5.55,0,0,0,5.72-6c-.2-3-2.91-5.41-5.72-5Zm-62.14,49h13.06v-3.55H91.58Zm52.69-38.54c-4.13,1.1-5.56,1.43-11.25,0,.13.76,0,1.72.41,2.06,1.68,1.45,3.52,2.72,5.3,4.05,1.55-1.16,3-2.34,4.49-3.32A2.22,2.22,0,0,0,144.27,264.09Zm-9,12.81c.3.9.52,1.75.87,2.54a1.25,1.25,0,0,0,.89.6,27.87,27.87,0,0,0,3.42,0,1.27,1.27,0,0,0,.87-.61,7.13,7.13,0,0,0,.64-1.94,1.09,1.09,0,0,0-.32-.91c-2.62-2-2.63-2-5.4-.28Zm6.88-4.5,4.67,2.78L148,269.1c-.68.07-1.31,0-1.7.21C145,270.23,143.64,271.28,142.15,272.4Zm-6.86,0c-1.43-1.08-2.71-2.1-4-3a4.68,4.68,0,0,0-1.54-.35l1,6.11Z"/><path class="cls-4" d="M55.66,216.71c.29-1.36.52-2.74.87-4.09,2.84-10.81,9.55-18.27,20.13-21.61,11.8-3.72,22.33-.87,31.07,7.94a28.46,28.46,0,0,1,8.19,17.66,30.25,30.25,0,0,1-23.57,32.58,30.25,30.25,0,0,1-36.06-23.31c-.23-1.07-.42-2.15-.63-3.22Zm56.61,3a26.38,26.38,0,1,0-26.5,26.32A26.45,26.45,0,0,0,112.27,219.76Z"/><path class="cls-4" d="M129.19,204.56h-3.72c0-1.08,0-2.16,0-3.24,0-.19.42-.49.66-.51,1-.06,2,0,3,0Z"/><path class="cls-4" d="M136.87,204.52v-3.64h3.74v3.64Z"/><path class="cls-4" d="M148.21,200.84h3.65v3.7h-3.65Z"/><path class="cls-4" d="M102.76,238.59H68.87V234.8c0-2.28,0-4.57,0-6.85a5.42,5.42,0,0,1,3.86-5.24c2.06-.77,4.17-1.41,6.26-2.1a2,2,0,0,0,.76-3.14,9.91,9.91,0,0,1-3.37-8.35c.08-2.55-.12-5.11,1.33-7.4a9.11,9.11,0,0,1,8.93-4.6,8.84,8.84,0,0,1,8,6.06,17.57,17.57,0,0,1,.3,9.57,8.51,8.51,0,0,1-2.76,4.5,1.94,1.94,0,0,0,.7,3.41c1.91.64,3.81,1.3,5.72,1.92a5.57,5.57,0,0,1,4.24,5.45c.11,3.39,0,6.78,0,10.17A1.73,1.73,0,0,1,102.76,238.59ZM72.7,234.7H99.08c0-2,0-3.89,0-5.78s-.33-2.27-2-2.83c-2.77-.92-5.53-1.87-8.32-2.74-.84-.26-1.16-.65-1.07-1.52a18.74,18.74,0,0,0,0-2.12H84a16.22,16.22,0,0,0,0,2.1c.12.94-.27,1.3-1.14,1.57-2.86.88-5.69,1.88-8.53,2.82a2,2,0,0,0-1.64,1.92C72.68,230.29,72.7,232.45,72.7,234.7Zm7.51-26.35h.1c0,.84,0,1.68,0,2.51a5.44,5.44,0,0,0,5.05,5c2.88.18,5.52-1.55,5.9-4.25a24.46,24.46,0,0,0,0-6.34c-.35-2.73-3-4.49-6-4.32a5.5,5.5,0,0,0-5,4.91C80.25,206.68,80.25,207.51,80.21,208.35Z"/></g></g></svg>