<svg xmlns="http://www.w3.org/2000/svg" viewBox="0 0 230.8 332.87"><defs><style>.cls-1,.cls-4{fill:#f18a00;}.cls-1,.cls-2{stroke:#f18a00;stroke-miterlimit:10;stroke-width:2.56px;}.cls-2{fill:none;}.cls-3{fill:#fff;}</style></defs><title>atencion-institucional</title><g id="Capa_2" data-name="Capa 2"><g id="Capa_1-2" data-name="Capa 1"><path class="cls-1" d="M1.28,1.28H217a12.48,12.48,0,0,1,12.48,12.48V167.42a0,0,0,0,1,0,0H1.28a0,0,0,0,1,0,0V1.28A0,0,0,0,1,1.28,1.28Z"/><path class="cls-2" d="M1.28,165.45H229.52a0,0,0,0,1,0,0V319.11A12.48,12.48,0,0,1,217,331.59H1.28a0,0,0,0,1,0,0V165.45A0,0,0,0,1,1.28,165.45Z"/><path class="cls-3" d="M29.87,42.79A8.22,8.22,0,0,0,34.08,44c2.41,0,3.82-1.26,3.82-3.1,0-1.69-1-2.69-3.45-3.61-3-1.06-4.81-2.62-4.81-5.17,0-2.84,2.35-4.94,5.9-4.94a8.36,8.36,0,0,1,4,.88L38.91,30a6.86,6.86,0,0,0-3.45-.87C33,29.09,32,30.58,32,31.82c0,1.69,1.1,2.53,3.62,3.5,3.09,1.21,4.65,2.69,4.65,5.37s-2.06,5.25-6.38,5.25a9.34,9.34,0,0,1-4.66-1.19Z"/><path class="cls-3" d="M52,37.11H44.93V43.7h7.9v2H42.56V27.43h9.86v2H44.93v5.77H52Z"/><path class="cls-3" d="M54.92,27.68a25,25,0,0,1,4.53-.39c2.5,0,4.15.48,5.28,1.5a4.56,4.56,0,0,1,1.43,3.46,4.82,4.82,0,0,1-3.43,4.65V37c1.39.49,2.23,1.81,2.67,3.69a31,31,0,0,0,1.4,5H64.36a23.85,23.85,0,0,1-1.2-4.37c-.54-2.49-1.52-3.46-3.66-3.53H57.28v7.9H54.92ZM57.28,36h2.4c2.52,0,4.12-1.37,4.12-3.46,0-2.37-1.71-3.4-4.19-3.4a9.78,9.78,0,0,0-2.33.21Z"/><path class="cls-3" d="M73,45.66,67,27.43h2.56l2.83,9c.78,2.45,1.46,4.68,1.95,6.8h.06c.51-2.11,1.26-4.4,2.08-6.77l3.08-9h2.52L75.58,45.66Z"/><path class="cls-3" d="M85.47,27.43V45.66H83.1V27.43Z"/><path class="cls-3" d="M101.36,45.07a11.64,11.64,0,0,1-4.82.87c-5.13,0-9-3.25-9-9.23,0-5.72,3.86-9.56,9.51-9.56a9.79,9.79,0,0,1,4.33.8l-.58,1.92a8.7,8.7,0,0,0-3.67-.75c-4.28,0-7.11,2.73-7.11,7.51,0,4.46,2.57,7.31,7,7.31a9.68,9.68,0,0,0,3.86-.74Z"/><path class="cls-3" d="M105.73,27.43V45.66h-2.37V27.43Z"/><path class="cls-3" d="M124.46,36.36c0,6.25-3.81,9.59-8.45,9.59-4.83,0-8.19-3.74-8.19-9.25,0-5.77,3.57-9.57,8.44-9.57S124.46,31,124.46,36.36Zm-14.15.29c0,3.9,2.11,7.39,5.83,7.39S122,40.61,122,36.46c0-3.62-1.9-7.41-5.81-7.41S110.31,32.66,110.31,36.65Z"/><path class="cls-3" d="M131.35,27.68a32.28,32.28,0,0,1,5-.39c3.37,0,5.79.8,7.39,2.29a8.34,8.34,0,0,1,2.58,6.52,9.69,9.69,0,0,1-2.63,7.09c-1.72,1.7-4.54,2.63-8.06,2.63a37.31,37.31,0,0,1-4.29-.21Zm2.37,16.12a16.22,16.22,0,0,0,2.36.11c5,0,7.77-2.79,7.77-7.72,0-4.31-2.41-7-7.37-7a13.85,13.85,0,0,0-2.76.24Z"/><path class="cls-3" d="M157.85,37.11h-7.06V43.7h7.9v2H148.42V27.43h9.85v2h-7.48v5.77h7.06Z"/><path class="cls-3" d="M33.14,72.38l-1.89,5.73H28.81L35,59.89h2.83l6.22,18.22H41.55L39.6,72.38Zm6-1.84-1.8-5.24c-.4-1.19-.67-2.28-.94-3.33h-.07c-.26,1.07-.54,2.18-.9,3.3l-1.8,5.27Z"/><path class="cls-3" d="M47.18,61.88H41.63v-2H55.12v2H49.54V78.11H47.18Z"/><path class="cls-3" d="M65.63,69.57H58.56v6.58h7.9v2H56.2V59.89h9.85v2H58.56v5.77h7.07Z"/><path class="cls-3" d="M68.55,78.11V59.89h2.59L77,69.1A53,53,0,0,1,80.23,75l.06,0c-.21-2.43-.25-4.65-.25-7.47V59.89h2.21V78.11H79.86l-5.79-9.24a58.67,58.67,0,0,1-3.39-6.1l-.08,0c.14,2.31.17,4.51.17,7.52v7.79Z"/><path class="cls-3" d="M98.14,77.53a11.79,11.79,0,0,1-4.81.87c-5.14,0-9-3.25-9-9.24,0-5.71,3.86-9.56,9.52-9.56a9.73,9.73,0,0,1,4.32.81l-.58,1.91a8.7,8.7,0,0,0-3.67-.75c-4.28,0-7.1,2.73-7.1,7.52,0,4.46,2.56,7.31,7,7.31a9.51,9.51,0,0,0,3.86-.75Z"/><path class="cls-3" d="M102.51,59.89V78.11h-2.37V59.89Z"/><path class="cls-3" d="M121.25,68.82c0,6.25-3.81,9.59-8.46,9.59-4.83,0-8.19-3.74-8.19-9.25,0-5.78,3.57-9.57,8.44-9.57S121.25,63.4,121.25,68.82Zm-14.16.28c0,3.9,2.12,7.39,5.83,7.39s5.84-3.43,5.84-7.57c0-3.63-1.9-7.42-5.81-7.42S107.09,65.12,107.09,69.1Zm9.78-13.41-3.45,3.15h-1.93l2.5-3.15Z"/><path class="cls-3" d="M123.35,78.11V59.89h2.59l5.83,9.21A51.6,51.6,0,0,1,135,75l.06,0c-.22-2.43-.26-4.65-.26-7.47V59.89h2.22V78.11h-2.39l-5.8-9.24a60.58,60.58,0,0,1-3.39-6.1l-.08,0c.14,2.31.18,4.51.18,7.52v7.79Z"/><path class="cls-3" d="M147.35,59.89V78.11H145V59.89Z"/><path class="cls-3" d="M150.5,78.11V59.89h2.59l5.84,9.21A53,53,0,0,1,162.18,75l.06,0c-.21-2.43-.26-4.65-.26-7.47V59.89h2.22V78.11h-2.39L156,68.87a58.67,58.67,0,0,1-3.39-6.1l-.08,0c.14,2.31.17,4.51.17,7.52v7.79Z"/><path class="cls-3" d="M167.05,75.24a8.18,8.18,0,0,0,4.2,1.18c2.41,0,3.82-1.25,3.82-3.1,0-1.69-1-2.68-3.44-3.61-3-1-4.82-2.61-4.82-5.16,0-2.84,2.36-4.95,5.91-4.95a8.39,8.39,0,0,1,4,.88l-.66,1.93a7,7,0,0,0-3.44-.86c-2.5,0-3.45,1.48-3.45,2.72,0,1.7,1.11,2.53,3.62,3.5,3.1,1.22,4.65,2.7,4.65,5.37s-2.06,5.26-6.38,5.26a9.38,9.38,0,0,1-4.65-1.19Z"/><path class="cls-3" d="M183.22,61.88h-5.55v-2h13.49v2h-5.58V78.11h-2.36Z"/><path class="cls-3" d="M194.6,59.89V78.11h-2.37V59.89Z"/><path class="cls-3" d="M203.19,67.9v1.75h-6.68V67.9Z"/><path class="cls-3" d="M33.66,94.33H28.1v-2H41.6v2H36v16.24H33.66Z"/><path class="cls-3" d="M45,92.34v10.8c0,4.07,1.8,5.79,4.26,5.79,2.68,0,4.43-1.78,4.43-5.79V92.34h2.37V103c0,5.6-3,7.88-6.9,7.88-3.72,0-6.53-2.12-6.53-7.78V92.34Z"/><path class="cls-3" d="M72,110a11.62,11.62,0,0,1-4.81.87c-5.14,0-9-3.25-9-9.23,0-5.72,3.86-9.56,9.52-9.56a9.92,9.92,0,0,1,4.32.8l-.58,1.92A8.7,8.7,0,0,0,67.75,94c-4.28,0-7.1,2.73-7.1,7.51,0,4.46,2.57,7.31,7,7.31a9.68,9.68,0,0,0,3.86-.74Z"/><path class="cls-3" d="M76.33,92.34v18.23H74V92.34Z"/><path class="cls-3" d="M95.07,101.27c0,6.25-3.81,9.59-8.46,9.59-4.83,0-8.19-3.74-8.19-9.25C78.42,95.84,82,92,86.86,92S95.07,95.86,95.07,101.27Zm-14.16.29c0,3.9,2.12,7.39,5.83,7.39s5.84-3.43,5.84-7.58c0-3.62-1.9-7.41-5.81-7.41S80.91,97.57,80.91,101.56Z"/><path class="cls-3" d="M97.17,110.57V92.34h2.59l5.83,9.21a53.25,53.25,0,0,1,3.26,5.94l.06,0c-.22-2.43-.26-4.66-.26-7.48V92.34h2.22v18.23h-2.39l-5.8-9.24a60.58,60.58,0,0,1-3.39-6.1l-.08,0c.14,2.3.18,4.5.18,7.51v7.8Z"/><path class="cls-3" d="M117,104.84l-1.89,5.73h-2.44l6.2-18.23h2.83l6.22,18.23h-2.51l-2-5.73Zm6-1.84-1.8-5.25c-.4-1.19-.67-2.27-.94-3.32h-.07c-.26,1.06-.54,2.18-.9,3.29l-1.8,5.28Z"/><path class="cls-3" d="M129.62,92.34H132v16.24h7.79v2H129.62Z"/><path class="cls-4" d="M62.08,244.29a10.54,10.54,0,0,1,3-5.15c2.48-2.13,5.4-2.33,8.43-2.09,2.87.24,5,1.86,6.7,4q4.23,5.22,8.39,10.49a1.62,1.62,0,0,0,1.44.71c2.78,0,5.57.1,8.34-.05a6.7,6.7,0,0,1,7.15,7.09c0,.47,0,.94,0,1.5h17.22c0-.81.12-1.64.14-2.47a6.49,6.49,0,0,1,6-6.08c.09,0,.19-.05.33-.08a1.53,1.53,0,0,0,.08-.37c0-4.51,0-9-.1-13.53a8.33,8.33,0,0,0-7.6-7.59c-4.94-.11-9.9-.11-14.84,0-3.86.08-7.5,3.79-7.67,7.64-.09,2.17-.06,4.34-.1,6.51a8.17,8.17,0,0,1-.11,1.31,2.19,2.19,0,0,1-2.06,1.78c-1,0-2.12-.74-2.12-1.71,0-4-.69-8,.84-11.87a13,13,0,0,1,12-8.15q6.66,0,13.33,0a13,13,0,0,1,12.87,12.9c0,4.34,0,8.68,0,13.15,1.77,0,3.49,0,5.21,0,.28,0,.59-.4.81-.67,2.83-3.52,5.7-7,8.45-10.57,3.7-4.83,10-4.8,13.74-2.74a7.93,7.93,0,0,1,4.32,7.14c.08,9.8.1,19.61,0,29.41,0,5.17-5,9.94-10.21,10-4.45.06-8.89,0-13.33,0a1.28,1.28,0,0,0-1.43.91c-1.75,4.21-3.56,8.41-5.36,12.6-.61,1.42-1.56,1.94-2.76,1.6a2,2,0,0,1-1.49-2.57,32.84,32.84,0,0,1,1.22-3.11c1.69-3.95,3.42-7.88,5.06-11.85a2.82,2.82,0,0,1,3-1.95q7,0,14,0c3.51,0,5.9-1.75,6.73-4.89a8.6,8.6,0,0,0,.22-2.21q0-13.49,0-27c0-2.62-1-4.3-3.24-4.75-2.67-.55-5.16-.31-7.05,2.11-2.95,3.8-6,7.5-9,11.3a3.81,3.81,0,0,1-3.37,1.63c-2.95-.08-5.9,0-8.85,0-2.52,0-3.2.67-3.19,3.17v1.1h1.2c5.4,0,10.79,0,16.18,0a1.94,1.94,0,0,0,1.76-.91c1.64-2.25,3.32-4.46,5-6.68a2.27,2.27,0,0,1,2.38-1,1.86,1.86,0,0,1,1.63,1.72,3.82,3.82,0,0,1-.68,2.13c-1.62,2.29-3.33,4.53-5.05,6.76a3,3,0,0,0-.67,2c0,2.07,0,4.14,0,6.21s-.85,2.84-2.84,2.84H138.9a4.38,4.38,0,0,0-4.74,3.44q-3.37,10.11-6.74,20.2a7.15,7.15,0,0,1-.52,1.31,2.1,2.1,0,0,1-2.35,1,2,2,0,0,1-1.62-2.17,5.09,5.09,0,0,1,.25-1.28Q126.6,286.23,130,276a8.78,8.78,0,0,1,8.94-6.44h5.53v-4.21H83.89v4.21H85c1.93,0,3.87-.09,5.79.1a8.31,8.31,0,0,1,7.49,6c2.41,7,4.72,14.09,7.05,21.15.5,1.54,0,2.7-1.36,3.12s-2.26-.27-2.78-1.7c-.05-.16-.12-.32-.17-.48l-6.72-20.19C93.4,275,92.08,274,89.38,274H82.26c-2,0-2.84-.85-2.85-2.84,0-2.18,0-4.35,0-6.52a2.69,2.69,0,0,0-.49-1.47c-1.71-2.36-3.52-4.65-5.2-7A3.89,3.89,0,0,1,73,254a1.86,1.86,0,0,1,1.63-1.72,2.25,2.25,0,0,1,2.37,1c1.71,2.27,3.4,4.57,5.15,6.82a1.81,1.81,0,0,0,1.2.71c5.73.05,11.46,0,17.19,0a5.13,5.13,0,0,0,.57-.07,16.75,16.75,0,0,0,0-2.13c-.18-1.41-1-2-2.53-2.05-3.09,0-6.18-.07-9.26,0a4,4,0,0,1-3.64-1.72c-2.93-3.78-6-7.44-8.94-11.21-1.92-2.46-4.44-2.65-7.14-2.08a4,4,0,0,0-3.09,3.71c0,.34,0,.68,0,1,0,9,0,18,0,27,0,2.85,1,5.14,3.65,6.37a9,9,0,0,0,3.52.7q6.83.11,13.64,0a3.08,3.08,0,0,1,3.26,2.14c1.92,4.66,4,9.27,5.92,13.91.76,1.77.19,3.13-1.43,3.49a2.2,2.2,0,0,1-2.52-1.56c-1.2-2.76-2.37-5.54-3.55-8.3-.64-1.5-1.32-3-1.91-4.49a1.11,1.11,0,0,0-1.27-.81c-4.18,0-8.35,0-12.52,0a10.83,10.83,0,0,1-11-8.83,1.23,1.23,0,0,0-.19-.33Z"/><path class="cls-4" d="M62.08,220.27a13.78,13.78,0,0,1,2.63-5.51,10.8,10.8,0,0,1,15-1.42c4.48,3.74,5.48,9.69,2.41,14.37a10.86,10.86,0,0,1-19.78-3.64,2.74,2.74,0,0,0-.21-.54Zm10.85,8a6.46,6.46,0,1,0-6.44-6.45A6.43,6.43,0,0,0,72.93,228.29Z"/><path class="cls-4" d="M166.3,221.87a10.88,10.88,0,0,1-21.75,0,10.88,10.88,0,1,1,21.75,0Zm-10.85,6.42a6.46,6.46,0,1,0-6.47-6.43A6.43,6.43,0,0,0,155.45,228.29Z"/><path class="cls-4" d="M125.07,211A10.88,10.88,0,1,1,114,200.12,11,11,0,0,1,125.07,211Zm-10.9-6.42a6.46,6.46,0,1,0,6.52,6.4A6.5,6.5,0,0,0,114.17,204.53Z"/><path class="cls-4" d="M112,269.61h4.31V300H112Z"/></g></g></svg>