<svg xmlns="http://www.w3.org/2000/svg" viewBox="0 0 230.8 332.87"><defs><style>.cls-1,.cls-4{fill:#f18a00;}.cls-1,.cls-2{stroke:#f18a00;stroke-miterlimit:10;stroke-width:2.56px;}.cls-2{fill:none;}.cls-3{fill:#fff;}</style></defs><title>software-consulta-online</title><g id="Capa_2" data-name="Capa 2"><g id="Capa_1-2" data-name="Capa 1"><path class="cls-1" d="M1.28,1.28h217a11.27,11.27,0,0,1,11.27,11.27V167.42a0,0,0,0,1,0,0H1.28a0,0,0,0,1,0,0V1.28A0,0,0,0,1,1.28,1.28Z"/><path class="cls-2" d="M1.28,165.45H229.52a0,0,0,0,1,0,0V320.32a11.27,11.27,0,0,1-11.27,11.27H1.28a0,0,0,0,1,0,0V165.45A0,0,0,0,1,1.28,165.45Z"/><path class="cls-3" d="M24.84,42.79A8.19,8.19,0,0,0,29.05,44c2.4,0,3.82-1.26,3.82-3.1,0-1.69-1-2.69-3.45-3.61-3-1.06-4.82-2.62-4.82-5.17,0-2.84,2.36-4.94,5.91-4.94a8.36,8.36,0,0,1,4,.88L33.87,30a6.85,6.85,0,0,0-3.44-.87c-2.5,0-3.45,1.49-3.45,2.73,0,1.69,1.11,2.53,3.63,3.5,3.09,1.21,4.65,2.69,4.65,5.37s-2.06,5.25-6.38,5.25a9.31,9.31,0,0,1-4.66-1.19Z"/><path class="cls-3" d="M52.58,36.36c0,6.25-3.81,9.59-8.46,9.59-4.83,0-8.19-3.74-8.19-9.25,0-5.77,3.57-9.57,8.44-9.57S52.58,31,52.58,36.36Zm-14.16.29c0,3.9,2.12,7.39,5.83,7.39s5.84-3.43,5.84-7.58c0-3.62-1.9-7.41-5.81-7.41S38.42,32.66,38.42,36.65Z"/><path class="cls-3" d="M54.14,27.43H64v2H56.5v6.07h6.89v1.95H56.5v8.25H54.14Z"/><path class="cls-3" d="M69.3,29.42H63.75v-2H77.24v2H71.67V45.66H69.3Z"/><path class="cls-3" d="M81.83,45.66,77.21,27.43H79.7l2.17,9.22c.53,2.28,1,4.54,1.34,6.3h.06c.3-1.81.87-4,1.48-6.32l2.45-9.2h2.44l2.23,9.24c.51,2.18,1,4.33,1.28,6.25h.06c.36-2,.87-4,1.43-6.3l2.41-9.19h2.42L94.3,45.66H91.84l-2.29-9.49a54.84,54.84,0,0,1-1.21-6h0a52,52,0,0,1-1.4,6l-2.58,9.49Z"/><path class="cls-3" d="M101.67,39.93l-1.89,5.73H97.34l6.2-18.23h2.83l6.22,18.23h-2.51l-2-5.73Zm6-1.84-1.8-5.25c-.4-1.19-.67-2.27-.94-3.32h-.07c-.26,1.06-.54,2.18-.9,3.29l-1.8,5.28Z"/><path class="cls-3" d="M113.77,27.68a25,25,0,0,1,4.53-.39c2.5,0,4.14.48,5.28,1.5A4.56,4.56,0,0,1,125,32.25a4.82,4.82,0,0,1-3.44,4.65V37c1.39.49,2.23,1.81,2.68,3.69a31,31,0,0,0,1.4,5h-2.44a23.85,23.85,0,0,1-1.2-4.37c-.54-2.49-1.53-3.46-3.66-3.53h-2.23v7.9h-2.35Zm2.35,8.3h2.41c2.52,0,4.11-1.37,4.11-3.46,0-2.37-1.7-3.4-4.19-3.4a9.84,9.84,0,0,0-2.33.21Z"/><path class="cls-3" d="M136.27,37.11H129.2V43.7h7.9v2H126.83V27.43h9.86v2H129.2v5.77h7.07Z"/><path class="cls-3" d="M142.9,27.68a32.07,32.07,0,0,1,5-.39c3.37,0,5.79.8,7.38,2.29a8.31,8.31,0,0,1,2.58,6.52,9.69,9.69,0,0,1-2.62,7.09c-1.72,1.7-4.54,2.63-8.07,2.63a37.12,37.12,0,0,1-4.28-.21Zm2.36,16.12a16.37,16.37,0,0,0,2.37.11c5.05,0,7.76-2.79,7.76-7.72,0-4.31-2.4-7-7.37-7a13.85,13.85,0,0,0-2.76.24Z"/><path class="cls-3" d="M168.86,37.11h-7.07V43.7h7.9v2H159.42V27.43h9.86v2h-7.49v5.77h7.07Z"/><path class="cls-3" d="M37.88,77.53a11.79,11.79,0,0,1-4.81.87c-5.14,0-9-3.25-9-9.24,0-5.71,3.86-9.56,9.52-9.56a9.73,9.73,0,0,1,4.32.81l-.58,1.91a8.7,8.7,0,0,0-3.67-.75c-4.28,0-7.1,2.73-7.1,7.52,0,4.46,2.57,7.31,7,7.31a9.51,9.51,0,0,0,3.86-.75Z"/><path class="cls-3" d="M54.36,68.82c0,6.25-3.81,9.59-8.45,9.59-4.84,0-8.2-3.74-8.2-9.25,0-5.78,3.58-9.57,8.44-9.57S54.36,63.4,54.36,68.82ZM40.2,69.1c0,3.9,2.12,7.39,5.83,7.39s5.84-3.43,5.84-7.57c0-3.63-1.89-7.42-5.81-7.42S40.2,65.12,40.2,69.1Z"/><path class="cls-3" d="M55.92,78.11V59.89h2.59l5.84,9.21A53,53,0,0,1,67.6,75l.06,0c-.21-2.43-.26-4.65-.26-7.47V59.89h2.22V78.11H67.23l-5.79-9.24a58.67,58.67,0,0,1-3.39-6.1l-.08,0c.14,2.31.17,4.51.17,7.52v7.79Z"/><path class="cls-3" d="M71.93,75.24a8.15,8.15,0,0,0,4.2,1.18c2.41,0,3.82-1.25,3.82-3.1,0-1.69-1-2.68-3.44-3.61-3-1-4.82-2.61-4.82-5.16,0-2.84,2.36-4.95,5.91-4.95a8.39,8.39,0,0,1,4,.88L81,62.41a7,7,0,0,0-3.44-.86c-2.51,0-3.45,1.48-3.45,2.72,0,1.7,1.11,2.53,3.62,3.5,3.09,1.22,4.65,2.7,4.65,5.37S80.28,78.4,76,78.4a9.38,9.38,0,0,1-4.65-1.19Z"/><path class="cls-3" d="M86.43,59.89v10.8c0,4.06,1.81,5.79,4.26,5.79,2.69,0,4.44-1.79,4.44-5.79V59.89h2.36V70.52c0,5.6-2.94,7.89-6.89,7.89-3.72,0-6.53-2.12-6.53-7.79V59.89Z"/><path class="cls-3" d="M100.09,59.89h2.36V76.12h7.8v2H100.09Z"/><path class="cls-3" d="M112.46,61.88h-5.55v-2h13.5v2h-5.58V78.11h-2.37Z"/><path class="cls-3" d="M121.87,72.38,120,78.11h-2.45l6.2-18.22h2.83l6.23,18.22h-2.52l-1.95-5.73Zm6-1.84-1.8-5.24c-.4-1.19-.67-2.28-.94-3.33h-.06c-.26,1.07-.55,2.18-.91,3.3l-1.79,5.27Z"/><path class="cls-3" d="M40.73,101.27c0,6.25-3.81,9.59-8.46,9.59-4.83,0-8.19-3.74-8.19-9.25,0-5.77,3.58-9.57,8.44-9.57S40.73,95.86,40.73,101.27Zm-14.16.29c0,3.9,2.12,7.39,5.83,7.39s5.84-3.43,5.84-7.58c0-3.62-1.89-7.41-5.81-7.41S26.57,97.57,26.57,101.56Z"/><path class="cls-3" d="M42.29,110.57V92.34h2.59l5.84,9.21A53.07,53.07,0,0,1,54,107.49l.06,0c-.21-2.43-.26-4.66-.26-7.48V92.34H56v18.23H53.6l-5.79-9.24a58.67,58.67,0,0,1-3.39-6.1l-.09,0c.15,2.3.18,4.5.18,7.51v7.8Z"/><path class="cls-3" d="M58.6,92.34H61v16.24h7.79v2H58.6Z"/><path class="cls-3" d="M72.24,92.34v18.23H69.88V92.34Z"/><path class="cls-3" d="M74.85,110.57V92.34h2.59l5.84,9.21a53.07,53.07,0,0,1,3.25,5.94l.06,0c-.21-2.43-.26-4.66-.26-7.48V92.34h2.22v18.23H86.16l-5.79-9.24A58.67,58.67,0,0,1,77,95.23l-.08,0c.14,2.3.17,4.5.17,7.51v7.8Z"/><path class="cls-3" d="M100.59,102H93.53v6.59h7.9v2H91.16V92.34H101v2H93.53v5.77h7.06Z"/><path class="cls-4" d="M99.33,270.53h7.89V246.87h4v1.26q0,13.08,0,26.15a7.86,7.86,0,0,1-8.15,8.21H63.79a7.85,7.85,0,0,1-8.08-8v-75.1a7.84,7.84,0,0,1,8-8.08h39.53a7.83,7.83,0,0,1,8,7.89c0,2.6,0,5.2,0,7.88H107.3v-3.79H59.76v67.27h7.85v-1.29c0-4.67.14-9.34,0-14A8.06,8.06,0,0,1,76,246.79c.36,0,.73,0,1.41,0-3-2.65-4.31-5.77-3.79-9.49A9.6,9.6,0,0,1,77.38,231a10,10,0,0,1,13.29,1c3,3.15,4.54,9.54-.93,14.71a30.43,30.43,0,0,1,3.65.39,7.74,7.74,0,0,1,5.93,7.58c0,4.84,0,9.67,0,14.5Zm-27.75,0H95.36c0-5.36,0-10.63,0-15.91a3.85,3.85,0,0,0-3.94-3.82q-7.92-.08-15.84,0a3.82,3.82,0,0,0-3.94,3.81C71.53,259.86,71.58,265.14,71.58,270.51Zm35.61-71.37c-.26-2.55-1.78-3.9-4.4-3.9q-19.32,0-38.63,0c-.25,0-.5,0-.74,0a3.77,3.77,0,0,0-3.6,3.89ZM59.74,274.59c.27,2.59,1.8,3.93,4.41,3.93h38.63c.25,0,.5,0,.74,0a3.8,3.8,0,0,0,3.59-3.92Zm17.79-35.84a5.94,5.94,0,1,0,6-5.82A6,6,0,0,0,77.53,238.75Z"/><path class="cls-4" d="M105.18,234.9c-1.9,0-3.71,0-5.53,0a2,2,0,0,1-2.18-1.27,2.07,2.07,0,0,1,.64-2.35c2.14-2.12,4.29-4.24,6.37-6.42a3.16,3.16,0,0,0,.77-1.79c.11-1.35,0-2.72,0-4.09a5.86,5.86,0,0,1,5.89-5.9h23.91A5.84,5.84,0,0,1,141,219c0,1.28,0,2.56,0,4h1.36c3.51,0,7,0,10.53,0a5.85,5.85,0,0,1,5.95,6c0,5-.13,10,.05,15a6.34,6.34,0,0,1-6,6.91c0,1.83,0,3.68,0,5.54a2,2,0,0,1-1.17,2.11,2.06,2.06,0,0,1-2.46-.6c-2.15-2.17-4.3-4.35-6.5-6.47a2.61,2.61,0,0,0-1.59-.66c-4,0-8,0-12,0a5.86,5.86,0,0,1-6-6c0-1.24,0-2.47,0-3.88H111.84C107.94,240.84,105.73,238.9,105.18,234.9Zm-.83-4.26.15.29H107c1.57,0,2.26.69,2.29,2.23,0,.46,0,.91,0,1.37a2.12,2.12,0,0,0,2.4,2.34h22.9c1.66,0,2.44-.77,2.45-2.42q0-7.49,0-15a2.12,2.12,0,0,0-2.44-2.42q-11.44,0-22.9,0c-1.65,0-2.4.78-2.41,2.45s0,3.3,0,5a2.92,2.92,0,0,1-1,2.4C106.92,228.09,105.65,229.38,104.35,230.64Zm44.23,21.1.32-.22c0-.9,0-1.81,0-2.71a1.9,1.9,0,0,1,2-2c.46,0,.91,0,1.36,0,1.81,0,2.55-.75,2.55-2.57q0-7.32,0-14.62c0-1.91-.72-2.64-2.61-2.64H141v7.6a5.88,5.88,0,0,1-6.26,6.28h-7.62c0,1.15,0,2.17,0,3.19,0,2.07.68,2.75,2.74,2.76,4.21,0,8.42-.05,12.63,0a3.82,3.82,0,0,1,2.26.93C146.09,249,147.3,250.41,148.58,251.74Z"/><path class="cls-4" d="M139,310.22h-4V290.56a7.86,7.86,0,0,1,8-8.07h5.37c-2.87-2.42-4.47-5.25-4.48-8.84a10.47,10.47,0,0,1,4.18-8.7A10.9,10.9,0,0,1,163,266.27c3.5,3.91,4.37,11-1.67,16.22h5.06a7.86,7.86,0,0,1,8.27,8.21q0,9.1,0,18.22v1.27h-4v-19c0-3.16-1.56-4.71-4.72-4.72H143.68c-3.16,0-4.69,1.54-4.7,4.73v19Zm22.8-36.7a6.94,6.94,0,1,0-6.92,7A7.05,7.05,0,0,0,161.78,273.52Z"/><path class="cls-4" d="M85.38,296.31H81.57v-3.83h3.81Z"/><path class="cls-4" d="M85.36,304.25H81.55v-3.81h3.81Z"/><path class="cls-4" d="M89.5,300.4h3.82v3.81H89.5Z"/><path class="cls-4" d="M101.25,304.25H97.44v-3.84h3.81Z"/><path class="cls-4" d="M105.34,300.39h3.82v3.84h-3.82Z"/><path class="cls-4" d="M117.15,300.42v3.78H113.3v-3.78Z"/><path class="cls-4" d="M121.2,304.23v-3.81H125v3.81Z"/></g></g></svg>