<svg xmlns="http://www.w3.org/2000/svg" viewBox="0 0 44.37 131.53"><defs><style>.cls-1{fill:#fff;}</style></defs><title>arrow-nav</title><g id="Capa_2" data-name="Capa 2"><g id="Capa_1-2" data-name="Capa 1"><g id="O76Ots"><path class="cls-1" d="M44.3,40.83c0,6.32.13,12.64,0,19C44,71,35.56,80.24,24.93,81.27,13.19,82.41,3.29,75.51.59,64.26A18.53,18.53,0,0,1,.09,60c0-12.86-.2-25.72,0-38.58.2-11,8.21-19.52,19.3-21.19,10-1.51,20.39,4.87,23.65,14.83a29,29,0,0,1,1.2,8.15c.18,5.87.06,11.75.06,17.63ZM2.91,40.44c0,6.2-.07,12.41,0,18.62a19.25,19.25,0,1,0,38.49,0q.18-18.29,0-36.58C41.31,11.38,32.8,3,22,3.08S3.08,11.53,2.92,22.48C2.84,28.46,2.91,34.45,2.91,40.44Z"/><path class="cls-1" d="M22.17,107.54,39.63,90.07a10,10,0,0,1,1.91-1.83,7,7,0,0,1,2.29-.35c-.08.78.12,1.78-.29,2.3A47.42,47.42,0,0,1,39.85,94c-5.18,5.18-10.41,10.31-15.51,15.57-1.62,1.67-2.71,1.65-4.33,0C13.89,103.3,7.61,97.17,1.5,90.89c-.66-.67-.66-2-1-3,1,.34,2.3.39,3,1.06C9.7,95,15.77,101.13,22.17,107.54Z"/><path class="cls-1" d="M22.15,128.29,40,110.42a11,11,0,0,1,2-1.8c.45-.26,1.57-.28,1.71,0a3.05,3.05,0,0,1,.19,2c-.12.46-.71.82-1.1,1.21C36.64,118,30.46,124,24.44,130.22c-1.76,1.82-2.88,1.69-4.57-.05-6-6.2-12.23-12.24-18.28-18.43-.69-.72-.8-2-1.18-3,1.09.36,2.5.39,3.24,1.11C9.76,115.77,15.75,121.86,22.15,128.29Z"/><path class="cls-1" d="M22.09,23a4.49,4.49,0,0,1-4.36-4.49,4.6,4.6,0,0,1,4.53-4.37,4.58,4.58,0,0,1,4.36,4.53A4.49,4.49,0,0,1,22.09,23Z"/></g></g></g></svg>