<svg xmlns="http://www.w3.org/2000/svg" viewBox="0 0 362.32 327.63"><defs><style>.cls-1{fill:#f18a00;}</style></defs><title>farmanexus-logo-footer</title><g id="Capa_2" data-name="Capa 2"><g id="Capa_1-2" data-name="Capa 1"><path class="cls-1" d="M184.14,143.16S161.67,106.55,151,88.51c-2.6-4.37-5.52-6.25-10.68-6-8,.45-16.12.12-25.35.12,1.61,3,32.31,52.75,46.85,75.33,3,4.66,3.54,7.57-.56,12.16Q93.51,245.87,26.31,322c-7.24,8.19-16,3-26.31,5.59,3.42-4.2,5.17-6.54,7.11-8.71q66.39-74.66,133-149.14c4.74-5.27,4.55-8.61.93-14.22-17.14-26.55-53.11-84.41-55.2-88,11.13,0,53.29.28,64.47-.13,5.15-.19,8.11,1.53,10.69,5.93,8.16,13.94,16.72,27.64,25.74,42.43C197,104.16,206.17,93,215.87,82.35c15.93-17.41,22.54-9.43,33.69-13.46C228.36,92.81,184.14,143.16,184.14,143.16Z"/><path class="cls-1" d="M200,162.5q42.83-49.21,85.1-97.8c16-18.37,32.76-36.11,47.62-55.34,15.11-15.46,21-5,29.65-9.36L220.23,163.78c20.21,31.4,40.25,62.55,61.19,95.11-24.15,0-46.69.13-69.21-.23-2,0-4.4-3-5.78-5.07-8.84-13.56-17.44-27.27-26.82-42-10,11.81-19.54,22.9-28.91,34.17-15.35,18.46-25.86,9.49-33.45,12.58l64.65-74.05c11.47,18.35,22.58,35.73,33.21,53.4,3,4.95,6.28,6.92,12,6.53,7.76-.53,15.58-.13,25.22-.13Z"/></g></g></svg>