<svg xmlns="http://www.w3.org/2000/svg" viewBox="0 0 293.67 68.77"><defs><style>.cls-1{fill:#f18a00;}</style></defs><title>farmanexus-logo</title><g id="Capa_2" data-name="Capa 2"><g id="Capa_1-2" data-name="Capa 1"><path class="cls-1" d="M0,54.91V15C0,10.64.9,6.68,4,3.55A12.53,12.53,0,0,1,13.16,0a19.36,19.36,0,0,1,6.15.88l-1.13,8A9.2,9.2,0,0,0,15,8.36c-3.39,0-4.69,3-4.69,6.38v3.34H17v7.56H10.3V54.91Z"/><path class="cls-1" d="M45.61,28.07c0-3.81-.18-8-.32-11.55H54.2l.53,5.62H55c1.68-4.1,4.79-6.25,7.6-6.25a10.21,10.21,0,0,1,2.19.18V26.26a11.48,11.48,0,0,0-2.24-.13c-2.14,0-5.08,1.51-6.2,5.46a13.79,13.79,0,0,0-.45,3.83V54.91H45.61Z"/><path class="cls-1" d="M65.74,28.07V16.16h8.62L74.89,21H75a11.26,11.26,0,0,1,9.15-5.1c4.3,0,7.07,2,8.37,5.25h.16a13,13,0,0,1,3.92-3.88A10.66,10.66,0,0,1,102,15.89c6.86,0,9.93,5.45,9.93,14.67V54.91H101.69V32.29c0-4.34-.49-7.87-3.57-7.87-1.81,0-3.18,1.25-3.87,3.47a11.1,11.1,0,0,0-.3,2.73V54.91H83.71v-24c0-2.8-.28-6.44-3.49-6.44-1.57,0-3.13,1.14-3.84,3.45a10.27,10.27,0,0,0-.4,2.9V54.91H65.74Z"/><path class="cls-1" d="M133.18,54.91l-.56-3.78h-.17A10,10,0,0,1,124,55.54c-5.8,0-10.11-4.85-10.11-11.65,0-10.09,8.87-14.21,17.54-14.28v-.86c0-3-1.76-5.24-5.39-5.24a14.32,14.32,0,0,0-7.81,2.24l-1.87-6.92a25.29,25.29,0,0,1,11.93-2.94c11.66,0,13.57,8.18,13.57,16V46.13a55.1,55.1,0,0,0,.56,8.78ZM131.7,36.22c-3.39.06-8.13,1.23-8.13,6.57,0,3.79,2.13,5.19,3.71,5.19a4.37,4.37,0,0,0,4.21-3.3,6.22,6.22,0,0,0,.21-1.75Z"/><path class="cls-1" d="M145.91,28.07c0-4.2-.17-7.9-.31-11.55h8.87L155,21h.16a10.9,10.9,0,0,1,9.3-5.07c7.28,0,10.22,5.82,10.22,14.4V54.91h-10.3v-24c0-3.23-.76-6.34-3.78-6.34-1.7,0-3.14,1.19-3.86,3.46a11,11,0,0,0-.53,3.54V54.91h-10.3Z"/><path class="cls-1" d="M198.14,55.08q5.54-6.21,11.08-12.42l.56-.79s-4.66,6-14.33,5.71c-4.54-.13-8-2.22-8.13-8.2h18.19a32,32,0,0,0,.31-5.36c0-11.61-4.82-18.13-13.08-18.13-8.64,0-15.36,7.69-15.36,20.6,0,12,5.75,18.89,16.21,18.89A34.31,34.31,0,0,0,198.14,55.08Zm-6-31.69c3.05,0,4.36,3.86,4.33,8.79h-9.12C187.42,28.3,188.79,23.39,192.13,23.39Z"/><path class="cls-1" d="M269.28,43.19c0,4.12.18,8.13.32,11.72h-8.88l-.56-4H260a10.7,10.7,0,0,1-8.86,4.67c-7.31,0-10.24-5.39-10.24-15.74V20.93l3.64-4.41h6.66V38.66c0,5,1,8.29,3.85,8.29a3.7,3.7,0,0,0,3.34-2.63,8.5,8.5,0,0,0,.59-3.27V16.52h10.3Z"/><path class="cls-1" d="M273.17,45.68a14.79,14.79,0,0,0,6.95,2c2.62,0,4.16-1.18,4.16-3.42,0-2-1.14-3.22-4.48-5.2-6.26-3.54-7.8-7.54-7.8-11,0-6.9,4.95-12.15,12.65-12.15a17.46,17.46,0,0,1,7.79,1.79l-1.8,7.51a10.72,10.72,0,0,0-5.36-1.56c-2.62,0-3.84,1.54-3.84,3.27s.9,2.68,4.49,4.83c5.65,3.2,7.74,7.21,7.74,11.55,0,7.88-5.62,12.1-13.58,12.1-3.19,0-7-.86-8.73-2.19Z"/><path class="cls-1" d="M222.94,31.63s-4.52-7.37-6.67-11a2.08,2.08,0,0,0-2.15-1.2c-1.62.09-3.25,0-5.1,0,.32.6,6.5,10.62,9.43,15.16a1.67,1.67,0,0,1-.12,2.45Q204.7,52.31,191.17,67.64c-1.46,1.65-3.23.62-5.3,1.13.69-.85,1-1.32,1.43-1.75q13.37-15,26.77-30a1.94,1.94,0,0,0,.19-2.86c-3.45-5.35-10.69-17-11.11-17.71,2.24,0,10.73,0,13,0a2.11,2.11,0,0,1,2.15,1.19c1.64,2.81,3.36,5.57,5.18,8.55,2.07-2.35,3.92-4.61,5.87-6.74,3.21-3.5,4.54-1.9,6.78-2.71C231.85,21.5,222.94,31.63,222.94,31.63Z"/><path class="cls-1" d="M226.13,35.53c5.74-6.61,11.43-13.15,17.13-19.69,3.21-3.7,6.59-7.27,9.59-11.14,3-3.12,4.21-1,6-1.89l-28.6,33,12.32,19.15c-4.87,0-9.4,0-13.94,0-.4,0-.88-.6-1.16-1-1.78-2.73-3.51-5.5-5.4-8.47-2,2.38-3.93,4.61-5.82,6.88-3.09,3.72-5.2,1.91-6.73,2.53l13-14.91c2.31,3.7,4.55,7.2,6.69,10.76A2.32,2.32,0,0,0,231.6,52c1.56-.11,3.14,0,5.08,0Z"/><path class="cls-1" d="M43.37,46.13V31.85c0-7.78-1.92-16-13.57-16a26.51,26.51,0,0,0-9.71,1.87v7.77a14.35,14.35,0,0,1,7.45-2c3.64,0,5.4,2.21,5.4,5.24v.86c-8.67.07-17.54,4.19-17.54,14.28,0,6.8,4.31,11.65,10.11,11.65A10,10,0,0,0,34,51.13h.18l.56,3.78h9.2A55.1,55.1,0,0,1,43.37,46.13Zm-10.12-3.2A5.86,5.86,0,0,1,33,44.68a4.35,4.35,0,0,1-4.2,3.3c-1.59,0-3.71-1.4-3.71-5.19,0-5.34,4.73-6.51,8.13-6.57Z"/></g></g></svg>