<?xml version="1.0" encoding="utf-8"?>
<!-- Generator: Adobe Illustrator 24.0.2, SVG Export Plug-In . SVG Version: 6.00 Build 0)  -->
<svg version="1.1" id="Capa_1" xmlns="http://www.w3.org/2000/svg" xmlns:xlink="http://www.w3.org/1999/xlink" x="0px" y="0px"
	 viewBox="0 0 410 404" style="enable-background:new 0 0 410 404;" xml:space="preserve">
<style type="text/css">
	.st0{fill:#F18A00;}
</style>
<g>
	<path class="st0" d="M208.3,179.6c0,0-25-39.7-36.9-59.3c-2.9-4.7-6.1-6.8-11.9-6.5c-9,0.5-17.9,0.1-28.2,0.1
		c1.8,3.3,36,57.2,52.2,81.7c3.3,5.1,4,8.2-0.6,13.2C132.5,263.6,82.4,318.5,32.5,373.6c-8.1,8.9-17.9,3.3-29.3,6.1
		c3.8-4.6,5.8-7.1,7.9-9.5c49.3-54,98.5-108,148.1-161.7c5.3-5.7,5.1-9.3,1-15.4c-19.1-28.8-59.2-91.5-61.5-95.4
		c12.4,0,59.4,0.3,71.8-0.1c5.7-0.2,9,1.7,11.9,6.4c9.1,15.1,18.6,30,28.7,46c11.5-12.6,21.7-24.8,32.5-36.3
		c17.7-18.9,25.1-10.2,37.5-14.6C257.6,125,208.3,179.6,208.3,179.6z"/>
	<path class="st0" d="M225.9,200.6c31.8-35.6,63.3-70.8,94.8-106.1c17.8-19.9,36.5-39.2,53-60c16.8-16.8,23.3-5.4,33-10.2
		C353.7,84,301.3,142.8,248.5,202c22.5,34.1,44.8,67.8,68.2,103.1c-26.9,0-52,0.1-77.1-0.2c-2.2,0-4.9-3.2-6.4-5.5
		c-9.8-14.7-19.4-29.6-29.9-45.6c-11.1,12.8-21.8,24.8-32.2,37c-17.1,20-28.8,10.3-37.3,13.6c24.3-27.1,47.8-53.3,72-80.3
		c12.8,19.9,25.2,38.7,37,57.9c3.3,5.4,7,7.5,13.4,7.1c8.6-0.6,17.4-0.1,28.1-0.1C264.3,258.6,245.2,229.7,225.9,200.6z"/>
</g>
</svg>
