<svg xmlns="http://www.w3.org/2000/svg" viewBox="0 0 208.89 207.73"><defs><style>.cls-1,.cls-4,.cls-6{fill:#f18a00;}.cls-1,.cls-2,.cls-5,.cls-6{stroke:#f18a00;stroke-miterlimit:10;}.cls-1,.cls-2{stroke-width:2.11px;}.cls-2,.cls-5{fill:none;}.cls-3{fill:#fff;}.cls-5{stroke-width:3.17px;}.cls-6{stroke-width:1.35px;}</style></defs><title>prescripcion-medica-1</title><g id="Capa_2" data-name="Capa 2"><g id="Capa_1-2" data-name="Capa 1"><path class="cls-1" d="M1.06,1.06H178a11.27,11.27,0,0,1,11.27,11.27V83.61a0,0,0,0,1,0,0H1.06a0,0,0,0,1,0,0V1.06A0,0,0,0,1,1.06,1.06Z"/><path class="cls-2" d="M1.06,82H189.28a0,0,0,0,1,0,0V195.4A11.27,11.27,0,0,1,178,206.67H1.06a0,0,0,0,1,0,0V82A0,0,0,0,1,1.06,82Z"/><path class="cls-3" d="M15.82,25.69l-1.56,4.73h-2l5.11-15H19.7l5.13,15H22.76l-1.61-4.73Zm4.94-1.52-1.49-4.32c-.33-1-.56-1.88-.78-2.74h0c-.22.87-.45,1.79-.75,2.71l-1.48,4.35Z"/><path class="cls-3" d="M24.66,28.05a6.69,6.69,0,0,0,3.47,1c2,0,3.15-1,3.15-2.56s-.81-2.22-2.84-3c-2.46-.87-4-2.16-4-4.26,0-2.34,1.95-4.08,4.87-4.08a6.79,6.79,0,0,1,3.32.73l-.54,1.59a5.66,5.66,0,0,0-2.84-.72c-2.06,0-2.84,1.23-2.84,2.25,0,1.4.91,2.09,3,2.89,2.55,1,3.83,2.22,3.83,4.43s-1.7,4.33-5.26,4.33a7.72,7.72,0,0,1-3.84-1Z"/><path class="cls-3" d="M46.65,22.75c0,5.16-3.15,7.91-7,7.91-4,0-6.76-3.08-6.76-7.63,0-4.76,3-7.89,7-7.89S46.65,18.28,46.65,22.75ZM35,23c0,3.21,1.75,6.09,4.81,6.09s4.82-2.83,4.82-6.24c0-3-1.56-6.12-4.79-6.12S35,19.7,35,23Z"/><path class="cls-3" d="M57.54,29.94a9.71,9.71,0,0,1-4,.71c-4.23,0-7.41-2.68-7.41-7.61A7.46,7.46,0,0,1,54,15.15a8.15,8.15,0,0,1,3.57.66l-.48,1.58a7.14,7.14,0,0,0-3-.62c-3.53,0-5.86,2.26-5.86,6.21,0,3.67,2.12,6,5.76,6a8,8,0,0,0,3.18-.61Z"/><path class="cls-3" d="M59.8,15.38v15H57.85v-15Z"/><path class="cls-3" d="M63.5,25.69,62,30.42h-2l5.11-15h2.34l5.13,15H70.44l-1.61-4.73Zm4.94-1.52L67,19.85c-.32-1-.55-1.88-.77-2.74h-.05c-.22.87-.45,1.79-.75,2.71L63.9,24.17Z"/><path class="cls-3" d="M72.6,15.59a25.3,25.3,0,0,1,4.13-.32c2.78,0,4.77.66,6.09,1.88A6.89,6.89,0,0,1,85,22.53a8,8,0,0,1-2.16,5.85c-1.43,1.4-3.75,2.17-6.66,2.17a29.63,29.63,0,0,1-3.53-.17Zm2,13.3a13.78,13.78,0,0,0,2,.09c4.16,0,6.4-2.31,6.4-6.37,0-3.55-2-5.79-6.08-5.79a12,12,0,0,0-2.27.19Z"/><path class="cls-3" d="M98.19,22.75c0,5.16-3.14,7.91-7,7.91S84.46,27.58,84.46,23c0-4.76,2.94-7.89,7-7.89S98.19,18.28,98.19,22.75ZM86.51,23c0,3.21,1.75,6.09,4.81,6.09s4.82-2.83,4.82-6.24c0-3-1.57-6.12-4.8-6.12S86.51,19.7,86.51,23Z"/><path class="cls-3" d="M101.19,15.57a21,21,0,0,1,3.74-.3,6.17,6.17,0,0,1,4.21,1.25,4,4,0,0,1,1.32,3.14,4.39,4.39,0,0,1-1.17,3.22,6.19,6.19,0,0,1-4.59,1.65,6.28,6.28,0,0,1-1.57-.14v6h-1.94Zm1.94,7.24a6.16,6.16,0,0,0,1.61.17c2.35,0,3.78-1.16,3.78-3.21s-1.42-3-3.55-3a8.75,8.75,0,0,0-1.84.16Z"/><path class="cls-3" d="M110.94,15.59a20.34,20.34,0,0,1,3.73-.32c2.06,0,3.42.39,4.36,1.23a3.79,3.79,0,0,1,1.18,2.86,4,4,0,0,1-2.84,3.83v.06c1.15.4,1.84,1.48,2.21,3a25.73,25.73,0,0,0,1.15,4.13h-2a19.6,19.6,0,0,1-1-3.6c-.44-2.06-1.26-2.86-3-2.92h-1.83v6.52h-1.94Zm1.94,6.84h2c2.08,0,3.4-1.13,3.4-2.85,0-2-1.41-2.8-3.46-2.81a8.8,8.8,0,0,0-1.92.17Z"/><path class="cls-3" d="M128.6,23.37h-5.83V28.8h6.52v1.62h-8.47v-15H129V17h-6.18v4.76h5.83Z"/><path class="cls-3" d="M129.42,28.05a6.72,6.72,0,0,0,3.47,1c2,0,3.15-1,3.15-2.56s-.81-2.22-2.84-3c-2.45-.87-4-2.16-4-4.26,0-2.34,1.95-4.08,4.88-4.08a6.82,6.82,0,0,1,3.32.73l-.55,1.59a5.62,5.62,0,0,0-2.84-.72c-2.06,0-2.84,1.23-2.84,2.25,0,1.4.91,2.09,3,2.89,2.55,1,3.83,2.22,3.83,4.43s-1.7,4.33-5.26,4.33a7.72,7.72,0,0,1-3.84-1Z"/><path class="cls-3" d="M146.33,23.37H140.5V28.8H147v1.62h-8.47v-15h8.13V17H140.5v4.76h5.83Z"/><path class="cls-3" d="M147.4,30.42v-15h2.14l4.82,7.6a45.57,45.57,0,0,1,2.68,4.9l.05,0c-.18-2-.21-3.84-.21-6.17v-6.3h1.83v15h-2L152,22.8a50.12,50.12,0,0,1-2.79-5l-.07,0c.12,1.9.14,3.71.14,6.2v6.43Z"/><path class="cls-3" d="M162.83,17h-4.58V15.38h11.14V17h-4.61v13.4h-1.95Z"/><path class="cls-3" d="M169.69,25.69l-1.55,4.73h-2l5.11-15h2.34l5.13,15h-2.07L175,25.69Zm4.94-1.52-1.49-4.32c-.32-1-.55-1.88-.77-2.74h-.05c-.22.87-.45,1.79-.75,2.71l-1.48,4.35Z"/><path class="cls-3" d="M13.38,36.69a20.85,20.85,0,0,1,3.73-.3,6.18,6.18,0,0,1,4.22,1.25,4.07,4.07,0,0,1,1.32,3.14A4.39,4.39,0,0,1,21.48,44a6.19,6.19,0,0,1-4.59,1.65,6.28,6.28,0,0,1-1.57-.14v6H13.38Zm1.94,7.24a6.16,6.16,0,0,0,1.61.17c2.35,0,3.78-1.16,3.78-3.21s-1.42-3-3.56-3a8.71,8.71,0,0,0-1.83.16Z"/><path class="cls-3" d="M24,36.71a20.34,20.34,0,0,1,3.73-.32c2.06,0,3.42.39,4.36,1.24a3.75,3.75,0,0,1,1.18,2.85,4,4,0,0,1-2.84,3.84v0c1.15.4,1.84,1.49,2.21,3a24.05,24.05,0,0,0,1.16,4.13h-2a20.22,20.22,0,0,1-1-3.6c-.44-2.06-1.26-2.86-3-2.91H26v6.51H24ZM26,43.56h2c2.08,0,3.4-1.14,3.4-2.86,0-2-1.41-2.8-3.46-2.8a8.19,8.19,0,0,0-1.92.17Z"/><path class="cls-3" d="M42.57,44.49H36.74v5.43h6.52v1.62H34.79v-15h8.13v1.62H36.74v4.76h5.83Z"/><path class="cls-3" d="M44.29,49.17a6.67,6.67,0,0,0,3.47,1c2,0,3.15-1,3.15-2.56s-.82-2.22-2.84-3c-2.46-.87-4-2.16-4-4.26C44.09,38,46,36.27,49,36.27a6.82,6.82,0,0,1,3.32.73l-.54,1.59a5.67,5.67,0,0,0-2.84-.71c-2.07,0-2.85,1.22-2.85,2.24,0,1.4.92,2.09,3,2.89,2.55,1,3.84,2.22,3.84,4.43s-1.7,4.34-5.26,4.34a7.58,7.58,0,0,1-3.84-1Z"/><path class="cls-3" d="M64.82,51.06a9.76,9.76,0,0,1-4,.72c-4.23,0-7.41-2.68-7.41-7.62a7.46,7.46,0,0,1,7.85-7.89,8.11,8.11,0,0,1,3.57.66l-.48,1.58a7.29,7.29,0,0,0-3-.62c-3.53,0-5.86,2.26-5.86,6.21,0,3.68,2.12,6,5.76,6a7.84,7.84,0,0,0,3.19-.62Z"/><path class="cls-3" d="M66,36.71a20.34,20.34,0,0,1,3.73-.32c2.06,0,3.42.39,4.36,1.24a3.75,3.75,0,0,1,1.18,2.85,4,4,0,0,1-2.84,3.84v0c1.15.4,1.84,1.49,2.21,3a25.4,25.4,0,0,0,1.15,4.13h-2a19.35,19.35,0,0,1-1-3.6c-.44-2.06-1.26-2.86-3-2.91H68v6.51H66ZM68,43.56h2c2.08,0,3.4-1.14,3.4-2.86,0-2-1.41-2.8-3.46-2.8a8.19,8.19,0,0,0-1.92.17Z"/><path class="cls-3" d="M78.74,36.5v15H76.79v-15Z"/><path class="cls-3" d="M80.89,36.69a21.07,21.07,0,0,1,3.74-.3,6.18,6.18,0,0,1,4.22,1.25,4.11,4.11,0,0,1,1.32,3.14A4.43,4.43,0,0,1,89,44a7.56,7.56,0,0,1-6.17,1.51v6H80.89Zm1.94,7.24a6.26,6.26,0,0,0,1.61.17c2.36,0,3.78-1.16,3.78-3.21s-1.42-3-3.55-3a8.82,8.82,0,0,0-1.84.16Z"/><path class="cls-3" d="M102,51.06a9.67,9.67,0,0,1-4,.72c-4.24,0-7.41-2.68-7.41-7.62a7.46,7.46,0,0,1,7.85-7.89,8.09,8.09,0,0,1,3.56.66l-.47,1.58a7.29,7.29,0,0,0-3-.62c-3.53,0-5.86,2.26-5.86,6.21,0,3.68,2.12,6,5.76,6a7.83,7.83,0,0,0,3.18-.62Z"/><path class="cls-3" d="M105.19,36.5v15h-2v-15Z"/><path class="cls-3" d="M120.21,43.87c0,5.16-3.15,7.92-7,7.92-4,0-6.76-3.09-6.76-7.64,0-4.76,3-7.89,7-7.89S120.21,39.4,120.21,43.87Zm-11.69.24c0,3.22,1.75,6.1,4.81,6.1s4.82-2.84,4.82-6.25c0-3-1.56-6.12-4.79-6.12S108.52,40.82,108.52,44.11ZM116.59,33l-2.84,2.6h-1.59l2.06-2.6Z"/><path class="cls-3" d="M121.49,51.54v-15h2.13l4.82,7.6a43.88,43.88,0,0,1,2.68,4.9l0,0c-.17-2-.21-3.84-.21-6.17V36.5h1.83v15h-2L126,43.92a49.28,49.28,0,0,1-2.8-5l-.07,0c.12,1.9.15,3.72.15,6.2v6.43Z"/><path class="cls-3" d="M26.07,66.06c-.12-2.09-.26-4.63-.24-6.49h-.06c-.52,1.75-1.15,3.64-1.9,5.7l-2.65,7.3H19.75L17.3,65.41c-.71-2.13-1.3-4-1.72-5.84h-.05c0,1.88-.15,4.38-.3,6.64l-.4,6.45H13l1-15h2.49l2.56,7.27c.61,1.84,1.12,3.5,1.51,5.07h.06c.39-1.52.92-3.18,1.59-5.07l2.68-7.27H27.4l.94,15H26.43Z"/><path class="cls-3" d="M37.86,65.61H32V71h6.52v1.62H30.08v-15h8.13v1.61H32V64h5.82ZM37.5,54.22l-2.84,2.6h-1.6l2.07-2.6Z"/><path class="cls-3" d="M39.83,57.83A26.47,26.47,0,0,1,44,57.51c2.78,0,4.78.66,6.09,1.89a6.84,6.84,0,0,1,2.13,5.38A8,8,0,0,1,50,70.63c-1.42,1.4-3.75,2.16-6.66,2.16a32.31,32.31,0,0,1-3.53-.16Zm2,13.3a13.61,13.61,0,0,0,1.95.1c4.17,0,6.41-2.31,6.41-6.38,0-3.55-2-5.79-6.08-5.79a11.21,11.21,0,0,0-2.28.2Z"/><path class="cls-3" d="M55.41,57.63v15H53.46v-15Z"/><path class="cls-3" d="M68.07,72.18a9.67,9.67,0,0,1-4,.72c-4.24,0-7.41-2.68-7.41-7.62a7.46,7.46,0,0,1,7.84-7.89,8.26,8.26,0,0,1,3.57.66l-.48,1.58a7.25,7.25,0,0,0-3-.61c-3.53,0-5.87,2.25-5.87,6.2,0,3.68,2.12,6,5.77,6a7.83,7.83,0,0,0,3.18-.62Z"/><path class="cls-3" d="M71.8,67.94l-1.55,4.72h-2l5.12-15h2.33l5.14,15H78.74l-1.61-4.72Zm4.94-1.52-1.49-4.33c-.33-1-.55-1.88-.77-2.74h-.06c-.21.88-.45,1.8-.74,2.72L72.2,66.42Z"/><g id="yoJQcg"><path class="cls-4" d="M58,105.5c.14-.34.27-.7.43-1a4.87,4.87,0,0,1,4.73-2.9h34c8.36,0,16.73.05,25.1,0a5.21,5.21,0,0,1,5.37,5.39c-.11,5.6,0,11.21,0,16.82a7.48,7.48,0,0,1,0,.82,1.63,1.63,0,0,1-3.24,0,7.42,7.42,0,0,1,0-.82V107.18c0-1.77-.57-2.33-2.37-2.33H63.68c-1.84,0-2.39.55-2.39,2.39v72.68c0,1.83.55,2.38,2.4,2.38h58.25c1.79,0,2.36-.56,2.36-2.34,0-3.75,0-54.51,0-58.26a1.64,1.64,0,0,1,2.26-1.66,1.59,1.59,0,0,1,1,1.55c0,4.15,0,55.33,0,59.48a4.77,4.77,0,0,1-3.17,4.2c-.25.09-.49.21-.74.31H61.94c-.39-.17-.79-.32-1.17-.5A5.47,5.47,0,0,1,58,181.64Z"/><path class="cls-4" d="M58,181.64a5.47,5.47,0,0,0,2.76,3.44c.38.18.78.33,1.17.5H58Z"/><path class="cls-5" d="M107.89,125.53a15.1,15.1,0,1,1-15.09-15.1A15.09,15.09,0,0,1,107.89,125.53Z"/><path class="cls-4" d="M96.32,133.54H89.69v-4.43H85.26v-6.63h4.43v-4.42h6.63v4.42h4.43v6.63H96.32Z"/><path class="cls-4" d="M90,149.15c-3.78,0-7.55,0-11.32,0a2.28,2.28,0,0,1-1.52-.57,1.85,1.85,0,0,1-.32-1.55c.18-.46.8-.79,1.27-1.1.18-.12.48,0,.73,0h32.77a1.64,1.64,0,0,1,1.65,1.67,1.61,1.61,0,0,1-1.64,1.59c-1.7,0-13.37,0-15.06,0Z"/><path class="cls-4" d="M90.09,155.06h21.37a1.51,1.51,0,0,1,1.66,1.05,1.68,1.68,0,0,1-1.83,2.21c-4.32,0-18.61,0-22.93,0H78.68c-1.21,0-1.94-.6-2-1.6s.71-1.68,2-1.68Z"/><path class="cls-4" d="M90,167.53H78.47a1.66,1.66,0,0,1-1.73-1.32,1.63,1.63,0,0,1,1-1.84,2.42,2.42,0,0,1,.8-.11h32.86a1.65,1.65,0,1,1,0,3.28Z"/><path class="cls-4" d="M97.31,173.44h14.15a1.65,1.65,0,1,1,0,3.28H93a1.65,1.65,0,1,1,0-3.28Z"/><path class="cls-4" d="M73,147.47a1.63,1.63,0,0,1-1.63,1.68,1.64,1.64,0,1,1,0-3.27A1.62,1.62,0,0,1,73,147.47Z"/><path class="cls-4" d="M73,156.77a1.64,1.64,0,0,1-1.65,1.57,1.64,1.64,0,1,1,.05-3.28A1.64,1.64,0,0,1,73,156.77Z"/><path class="cls-4" d="M73,165.89a1.63,1.63,0,0,1-1.59,1.64,1.64,1.64,0,1,1,0-3.28A1.64,1.64,0,0,1,73,165.89Z"/></g><polygon class="cls-6" points="189.04 129.72 189.04 91.94 207.93 110.83 189.04 129.72"/></g></g></svg>