<svg xmlns="http://www.w3.org/2000/svg" viewBox="0 0 887.88 232.41"><defs><style>.cls-1,.cls-4{fill:#f18a00;}.cls-1,.cls-2{stroke:#f18a00;stroke-miterlimit:10;stroke-width:2.11px;}.cls-2{fill:none;}.cls-3{fill:#fff;}</style></defs><title>proceso-2</title><g id="Capa_2" data-name="Capa 2"><g id="Capa_1-2" data-name="Capa 1"><path class="cls-1" d="M242.46,25.74H419.35a11.34,11.34,0,0,1,11.34,11.34V108.3a0,0,0,0,1,0,0H242.46a0,0,0,0,1,0,0V25.74A0,0,0,0,1,242.46,25.74Z"/><path class="cls-2" d="M242.46,106.67H430.69a0,0,0,0,1,0,0V220a11.34,11.34,0,0,1-11.34,11.34H242.46a0,0,0,0,1,0,0V106.67A0,0,0,0,1,242.46,106.67Z"/><path class="cls-3" d="M263.28,60a6.79,6.79,0,0,0,3.47,1c2,0,3.15-1,3.15-2.56s-.81-2.22-2.84-3c-2.46-.87-4-2.16-4-4.26,0-2.35,1.95-4.08,4.88-4.08a6.77,6.77,0,0,1,3.31.73l-.54,1.59a5.66,5.66,0,0,0-2.84-.72c-2.06,0-2.84,1.23-2.84,2.25,0,1.4.91,2.09,3,2.89,2.55,1,3.83,2.22,3.83,4.43s-1.7,4.33-5.26,4.33a7.72,7.72,0,0,1-3.84-1Z"/><path class="cls-3" d="M281.08,55.29h-5.83v5.43h6.52v1.62H273.3v-15h8.13v1.62h-6.18v4.76h5.83Z"/><path class="cls-3" d="M283.05,47.51a20.19,20.19,0,0,1,3.73-.33c2.06,0,3.42.4,4.36,1.24a3.77,3.77,0,0,1,1.18,2.86,4,4,0,0,1-2.84,3.83v.06c1.15.4,1.84,1.48,2.21,3a25.73,25.73,0,0,0,1.15,4.13h-2a19.6,19.6,0,0,1-1-3.6c-.44-2.06-1.26-2.86-3-2.92H285v6.52h-1.94ZM285,54.35h2c2.08,0,3.39-1.13,3.39-2.85,0-2-1.4-2.8-3.45-2.81a8.8,8.8,0,0,0-1.92.17Z"/><path class="cls-3" d="M297.49,62.34l-4.92-15h2.11L297,54.72c.65,2,1.21,3.86,1.61,5.61h.05c.42-1.74,1-3.63,1.72-5.59l2.54-7.44H305l-5.37,15Z"/><path class="cls-3" d="M307.35,47.3v15h-2v-15Z"/><path class="cls-3" d="M320,61.86a9.72,9.72,0,0,1-4,.71c-4.23,0-7.41-2.68-7.41-7.61a7.46,7.46,0,0,1,7.85-7.89,8.11,8.11,0,0,1,3.57.66l-.48,1.58a7.09,7.09,0,0,0-3-.62c-3.53,0-5.87,2.26-5.87,6.2,0,3.68,2.12,6,5.76,6a8,8,0,0,0,3.19-.61Z"/><path class="cls-3" d="M323.16,47.3v15h-2v-15Z"/><path class="cls-3" d="M338.17,54.67c0,5.16-3.14,7.91-7,7.91s-6.75-3.08-6.75-7.63c0-4.76,2.95-7.89,7-7.89S338.17,50.2,338.17,54.67Zm-11.68.24c0,3.21,1.75,6.09,4.81,6.09s4.82-2.83,4.82-6.24c0-3-1.56-6.12-4.8-6.12S326.49,51.62,326.49,54.91Z"/><path class="cls-3" d="M343,47.51a25.22,25.22,0,0,1,4.13-.33c2.78,0,4.77.66,6.09,1.89a6.89,6.89,0,0,1,2.13,5.38,8,8,0,0,1-2.16,5.85c-1.43,1.4-3.75,2.17-6.66,2.17A29.63,29.63,0,0,1,343,62.3Zm2,13.3a13.78,13.78,0,0,0,1.95.09c4.16,0,6.4-2.31,6.4-6.37,0-3.55-2-5.79-6.08-5.79a12,12,0,0,0-2.27.19Z"/><path class="cls-3" d="M364.36,55.29h-5.82v5.43h6.51v1.62h-8.47v-15h8.13v1.62h-6.17v4.76h5.82Z"/><path class="cls-3" d="M274,88.62a9.69,9.69,0,0,1-4,.72c-4.23,0-7.41-2.68-7.41-7.62a7.46,7.46,0,0,1,7.85-7.89,8.07,8.07,0,0,1,3.57.67l-.48,1.58a7.09,7.09,0,0,0-3-.62c-3.53,0-5.87,2.25-5.87,6.2,0,3.68,2.12,6,5.76,6a7.84,7.84,0,0,0,3.19-.62Z"/><path class="cls-3" d="M277.77,84.38l-1.56,4.72h-2l5.12-15h2.33l5.14,15h-2.08l-1.61-4.72Zm4.94-1.52-1.49-4.33c-.33-1-.55-1.88-.78-2.74h-.05c-.22.88-.45,1.8-.75,2.72l-1.48,4.35Z"/><path class="cls-3" d="M287.75,74.07h1.95v13.4h6.43V89.1h-8.38Z"/><path class="cls-3" d="M297.05,74.07H299v13.4h6.43V89.1h-8.38Z"/><path class="cls-3" d="M320.36,88.62a9.67,9.67,0,0,1-4,.72c-4.23,0-7.41-2.68-7.41-7.62a7.46,7.46,0,0,1,7.85-7.89,8.1,8.1,0,0,1,3.57.67l-.48,1.58a7.14,7.14,0,0,0-3-.62c-3.53,0-5.86,2.25-5.86,6.2,0,3.68,2.12,6,5.76,6a7.79,7.79,0,0,0,3.18-.62Z"/><path class="cls-3" d="M329.35,82.05h-5.83v5.44H330V89.1h-8.48v-15h8.13v1.62h-6.17v4.76h5.83Z"/><path class="cls-3" d="M331.31,89.1v-15h2.14l4.81,7.6A43.11,43.11,0,0,1,341,86.56l.05,0c-.18-2-.22-3.84-.22-6.17v-6.3h1.83v15h-2l-4.78-7.62a50.15,50.15,0,0,1-2.8-5l-.06,0c.11,1.91.14,3.72.14,6.2V89.1Z"/><path class="cls-3" d="M347.63,75.71h-4.58V74.07h11.14v1.64h-4.61V89.1h-1.95Z"/><path class="cls-3" d="M362.4,82.05h-5.83v5.44h6.52V89.1h-8.47v-15h8.13v1.62h-6.18v4.76h5.83Z"/><path class="cls-3" d="M364.37,74.27A21.26,21.26,0,0,1,368.1,74c2.06,0,3.42.39,4.36,1.24a3.77,3.77,0,0,1,1.18,2.86,4,4,0,0,1-2.84,3.83v.05c1.15.4,1.84,1.49,2.21,3a25.17,25.17,0,0,0,1.15,4.12h-2a19.09,19.09,0,0,1-1-3.6c-.44-2-1.26-2.85-3-2.91h-1.83V89.1h-1.94Zm1.94,6.85h2c2.08,0,3.4-1.13,3.4-2.86,0-2-1.41-2.8-3.46-2.8a8.8,8.8,0,0,0-1.92.17Z"/><path class="cls-4" d="M287.31,179.27c.67-1.62,1.59-3,3.42-3.43a7.73,7.73,0,0,1,1.86-.19c12,0,24.06,0,36.1,0a5,5,0,0,1,5.39,5.45c-.12,2.45,0,4.9,0,7.35a.78.78,0,0,0,0,.14l13.93-3.3c0-.87,0-1.69,0-2.5a1.7,1.7,0,0,0-.42-.86c-.68-.82-1.47-1.56-2.07-2.43a1.43,1.43,0,0,0-1.39-.69,8.2,8.2,0,0,1-5.77-1.85,7.8,7.8,0,0,1-1.75-9.81,4,4,0,0,0,.48-1.74c.15-2.85-.1-5.77.42-8.54,1.43-7.76,6.14-12.82,13.74-14.83a18.47,18.47,0,0,1,22.86,14.41c.54,2.83.29,5.81.46,8.72a5.24,5.24,0,0,0,.55,2.11,7.73,7.73,0,0,1-6.24,11.43c-1.54.08-2.81.29-3.5,1.83a.75.75,0,0,1-.24.29c-1.64,1.08-1.71,2.67-1.38,4.51l5.73,1.34c2.25.54,4.53,1,6.74,1.67a10.58,10.58,0,0,1,7.61,10.29c0,6.88,0,13.76,0,20.64H301.26v-3.19h3.11v-3h-1.11c-3.73,0-7.47,0-11.21,0a4.4,4.4,0,0,1-3.56-1.61,14.88,14.88,0,0,1-1.18-2Zm29.6,30.53c.33,0,.57,0,.82,0h11.21c1.42,0,1.93-.51,1.93-1.93V180.77c0-1.44-.52-2-2-2H292.5c-1.53,0-2,.51-2,2v27.05c0,1.51.46,2,2,2h11.12c.27,0,.54,0,.88-.07,0-.85,0-1.63,0-2.41a9.16,9.16,0,0,1,.16-2,6.25,6.25,0,0,1,7-4.8,6.33,6.33,0,0,1,5.32,6.35C316.92,207.88,316.91,208.82,316.91,209.8Zm54.34-46.12c0-1.71.12-3.48,0-5.22a15.51,15.51,0,0,0-18.48-13.62c-8.71,2-13.58,9.49-12.36,18.86l3-.62v-3h3.18v3a9.32,9.32,0,0,0,6.72-2.67c.6.66,1.17,1.24,1.69,1.87a.86.86,0,0,0,1.23.23l3.48-1.94c.46.5,1,1.16,1.63,1.79a1,1,0,0,0,.62.3,4.72,4.72,0,0,0,3.41-2.59h3c0,.86,0,1.67,0,2.47a.86.86,0,0,0,.45.64C369.62,163.43,370.48,163.54,371.25,163.68ZM373,199v17h7.65c0-.2.05-.34.05-.49,0-5.69,0-11.37,0-17.05a7.42,7.42,0,0,0-5.43-7.21c-1.47-.44-3-.73-4.47-1.08l-4.2-1c-.62,3.1-1.23,6.09-1.85,9.16l-3.39-2a17.18,17.18,0,0,0-.65,3.63c.15,3.42.49,6.82.77,10.23.16,1.93.35,3.85.52,5.77h7.9V199Zm-26.11-.62c-.53-3.14-1-6.15-1.56-9.25-2.29.53-4.49,1-6.67,1.56-1.26.33-2.49.78-3.73,1.21-.67.24-.87.72-.87,1.46,0,4.9,0,9.8,0,14.7a4.72,4.72,0,0,1-2.56,4.4c-.22.12-.53.35-.54.54-.06,1,0,2,0,3h7.75V199h3.18v17h7.8c0-.15.06-.24.07-.32q.55-6.48,1.1-12.95c.18-2.1.57-4.24-.75-6.23Zm-.36-31.94c0,2-.06,4.09,0,6.16A9,9,0,0,0,352,181a8.84,8.84,0,0,0,9.56-1.11,11.62,11.62,0,0,0,1-.89l-.09-.2h-6.57v-3.12c2.65,0,5.22,0,7.79,0,.71,0,1.15-.14,1.19-.92.16-3.27.33-6.53.5-10a6.15,6.15,0,0,0-.7.22,12.38,12.38,0,0,1-6.47,1.28,3.54,3.54,0,0,1-1-.46c-1.65.15-3.41.34-5.18.45-.33,0-.69-.28-1.26-.54Zm7.65,34.14c-.43,5.16-.85,10.26-1.28,15.41h5.89c-.43-5.17-.86-10.27-1.29-15.41ZM307.62,216h6.11c0-3.11,0-6.15,0-9.19a3,3,0,0,0-2.9-3.07,2.88,2.88,0,0,0-3.18,2.86C307.56,209.7,307.62,212.81,307.62,216Zm35.84-49.56a4.49,4.49,0,0,0-4.69,5,4.42,4.42,0,0,0,4.69,4.11Zm24.72,9.14a4.59,4.59,0,0,0,4.72-5,4.36,4.36,0,0,0-4.72-4.09ZM316.94,216h10.77v-2.92H316.94Zm43.45-31.78c-3.41.91-4.59,1.17-9.28,0,.11.62,0,1.41.34,1.69,1.39,1.2,2.91,2.25,4.37,3.34,1.28-1,2.44-1.93,3.7-2.74A1.82,1.82,0,0,0,360.39,184.22ZM353,194.78a18.42,18.42,0,0,0,.72,2.1,1,1,0,0,0,.72.49,22.27,22.27,0,0,0,2.83,0,1.08,1.08,0,0,0,.72-.5,6.4,6.4,0,0,0,.53-1.6.94.94,0,0,0-.27-.75c-2.16-1.62-2.17-1.61-4.45-.23Zm5.67-3.71,3.85,2.3,1-5c-.56.06-1.08,0-1.4.18C361,189.29,359.87,190.15,358.64,191.07Zm-5.65,0c-1.19-.89-2.24-1.73-3.35-2.49a4.11,4.11,0,0,0-1.27-.29l.84,5Z"/><path class="cls-4" d="M287.31,145.15c.24-1.13.43-2.27.72-3.38,2.34-8.91,7.87-15.07,16.6-17.82,9.73-3.07,18.41-.72,25.62,6.54A23.48,23.48,0,0,1,337,145.06a24.92,24.92,0,0,1-49.18,7.65c-.19-.89-.35-1.77-.52-2.66ZM334,147.66a21.76,21.76,0,1,0-21.85,21.71A21.81,21.81,0,0,0,334,147.66Z"/><path class="cls-4" d="M348,135.13h-3.07c0-.9,0-1.79,0-2.68,0-.15.35-.41.55-.42.8-.05,1.61,0,2.49,0Z"/><path class="cls-4" d="M354.28,135.09v-3h3.09v3Z"/><path class="cls-4" d="M363.64,132.06h3v3.05h-3Z"/><path class="cls-4" d="M326.15,163.19H298.21v-3.12c0-1.89,0-3.77,0-5.66a4.47,4.47,0,0,1,3.19-4.32c1.7-.63,3.44-1.16,5.16-1.73a1.67,1.67,0,0,0,.63-2.59,8.19,8.19,0,0,1-2.79-6.88c.07-2.11-.1-4.22,1.1-6.11a7.52,7.52,0,0,1,7.37-3.79,7.29,7.29,0,0,1,6.59,5,14.52,14.52,0,0,1,.24,7.9,7,7,0,0,1-2.28,3.71,1.6,1.6,0,0,0,.58,2.81c1.57.53,3.14,1.07,4.72,1.59a4.6,4.6,0,0,1,3.5,4.49c.09,2.79,0,5.59,0,8.38A1,1,0,0,1,326.15,163.19ZM301.36,160h21.76v-4.77c0-1.48-.28-1.87-1.66-2.33-2.29-.76-4.56-1.54-6.86-2.26-.69-.21-1-.54-.88-1.26a17,17,0,0,0,0-1.75h-3.05a14.26,14.26,0,0,0,0,1.74c.1.77-.22,1.07-.94,1.29-2.36.73-4.69,1.56-7,2.33a1.64,1.64,0,0,0-1.35,1.59C301.35,156.34,301.36,158.13,301.36,160Zm6.2-21.73h.08c0,.69,0,1.38,0,2.07a4.47,4.47,0,0,0,4.17,4.1,4.39,4.39,0,0,0,4.86-3.5,20.35,20.35,0,0,0,0-5.23c-.29-2.25-2.47-3.7-4.91-3.56a4.53,4.53,0,0,0-4.13,4.05C307.59,136.87,307.59,137.56,307.56,138.25Z"/><path class="cls-1" d="M32.1,25.74h177A11.27,11.27,0,0,1,220.33,37V108.3a0,0,0,0,1,0,0H32.1a0,0,0,0,1,0,0V25.74A0,0,0,0,1,32.1,25.74Z"/><path class="cls-2" d="M32.1,106.67H220.33a0,0,0,0,1,0,0V220.08a11.27,11.27,0,0,1-11.27,11.27H32.1a0,0,0,0,1,0,0V106.67A0,0,0,0,1,32.1,106.67Z"/><path class="cls-3" d="M51.53,60A6.82,6.82,0,0,0,55,61c2,0,3.15-1,3.15-2.56s-.81-2.22-2.84-3c-2.45-.87-4-2.16-4-4.26,0-2.35,2-4.08,4.88-4.08a6.77,6.77,0,0,1,3.31.73L59,49.39a5.62,5.62,0,0,0-2.84-.72c-2.06,0-2.84,1.23-2.84,2.25,0,1.4.91,2.09,3,2.89,2.55,1,3.83,2.22,3.83,4.43s-1.7,4.33-5.26,4.33a7.72,7.72,0,0,1-3.84-1Z"/><path class="cls-3" d="M74.41,54.67c0,5.16-3.14,7.91-7,7.91-4,0-6.76-3.08-6.76-7.63,0-4.76,2.95-7.89,7-7.89S74.41,50.2,74.41,54.67Zm-11.68.24c0,3.21,1.75,6.09,4.81,6.09s4.82-2.83,4.82-6.24c0-3-1.57-6.12-4.8-6.12S62.73,51.62,62.73,54.91Z"/><path class="cls-3" d="M75.69,47.3h8.1v1.62H77.64v5h5.68v1.6H77.64v6.81h-2Z"/><path class="cls-3" d="M88.2,48.94H83.62V47.3H94.75v1.64h-4.6v13.4h-2Z"/><path class="cls-3" d="M98.53,62.34l-3.81-15h2.06l1.79,7.61c.43,1.88.83,3.74,1.1,5.2h0c.24-1.49.72-3.29,1.22-5.22l2-7.59h2l1.83,7.62c.42,1.8.83,3.57,1.06,5.16h0c.3-1.65.71-3.32,1.18-5.2l2-7.58h2l-4.27,15h-2l-1.89-7.83a45.62,45.62,0,0,1-1-4.91h0a42.12,42.12,0,0,1-1.16,4.91l-2.13,7.83Z"/><path class="cls-3" d="M114.89,57.61l-1.55,4.73h-2l5.12-15h2.33l5.14,15h-2.08l-1.61-4.73Zm4.94-1.52-1.49-4.32c-.33-1-.55-1.88-.78-2.75h0c-.21.88-.45,1.8-.74,2.72l-1.49,4.35Z"/><path class="cls-3" d="M124.87,47.51a20.38,20.38,0,0,1,3.74-.33c2.06,0,3.42.4,4.35,1.24a3.74,3.74,0,0,1,1.18,2.86,4,4,0,0,1-2.83,3.83v.06c1.15.4,1.84,1.48,2.2,3a26.5,26.5,0,0,0,1.16,4.13h-2a19.6,19.6,0,0,1-1-3.6c-.45-2.06-1.26-2.86-3-2.92h-1.84v6.52h-1.94Zm1.94,6.84h2c2.08,0,3.39-1.13,3.39-2.85,0-2-1.41-2.8-3.45-2.81a8.84,8.84,0,0,0-1.93.17Z"/><path class="cls-3" d="M143.43,55.29H137.6v5.43h6.52v1.62h-8.47v-15h8.12v1.62H137.6v4.76h5.83Z"/><path class="cls-3" d="M148.89,47.51a25.45,25.45,0,0,1,4.14-.33c2.78,0,4.77.66,6.09,1.89a6.89,6.89,0,0,1,2.13,5.38,8,8,0,0,1-2.17,5.85c-1.42,1.4-3.74,2.17-6.65,2.17a29.93,29.93,0,0,1-3.54-.17Zm2,13.3a14,14,0,0,0,2,.09c4.16,0,6.4-2.31,6.4-6.37,0-3.55-2-5.79-6.08-5.79a12.24,12.24,0,0,0-2.28.19Z"/><path class="cls-3" d="M170.3,55.29h-5.83v5.43H171v1.62h-8.47v-15h8.13v1.62h-6.18v4.76h5.83Z"/><path class="cls-3" d="M62.29,88.62a9.67,9.67,0,0,1-4,.72c-4.24,0-7.42-2.68-7.42-7.62a7.47,7.47,0,0,1,7.85-7.89,8.07,8.07,0,0,1,3.57.67l-.48,1.58a7.09,7.09,0,0,0-3-.62c-3.53,0-5.87,2.25-5.87,6.2,0,3.68,2.12,6,5.77,6a7.83,7.83,0,0,0,3.18-.62Z"/><path class="cls-3" d="M75.44,81.43c0,5.16-3.15,7.92-7,7.92-4,0-6.76-3.09-6.76-7.63,0-4.77,3-7.9,7-7.9S75.44,77,75.44,81.43Zm-11.69.24c0,3.22,1.75,6.1,4.81,6.1s4.82-2.83,4.82-6.25c0-3-1.56-6.12-4.79-6.12S63.75,78.38,63.75,81.67Z"/><path class="cls-3" d="M76.27,89.1v-15h2.14l4.81,7.6a44.74,44.74,0,0,1,2.69,4.89l0,0c-.18-2-.22-3.84-.22-6.17v-6.3h1.83v15h-2l-4.78-7.62a50.15,50.15,0,0,1-2.8-5l-.06,0c.11,1.91.14,3.72.14,6.2V89.1Z"/><path class="cls-3" d="M89,86.74a6.82,6.82,0,0,0,3.47,1c2,0,3.16-1,3.16-2.56s-.82-2.21-2.85-3c-2.45-.87-4-2.17-4-4.27,0-2.34,1.94-4.08,4.87-4.08a6.93,6.93,0,0,1,3.32.73l-.54,1.59a5.78,5.78,0,0,0-2.84-.71c-2.07,0-2.85,1.22-2.85,2.25,0,1.39.92,2.08,3,2.88,2.55,1,3.84,2.23,3.84,4.43s-1.7,4.34-5.27,4.34a7.75,7.75,0,0,1-3.84-1Z"/><path class="cls-3" d="M100.54,74.07V83c0,3.35,1.49,4.78,3.52,4.78,2.21,0,3.65-1.48,3.65-4.78V74.07h2v8.77c0,4.62-2.43,6.51-5.69,6.51-3.07,0-5.39-1.75-5.39-6.42V74.07Z"/><path class="cls-3" d="M111.36,74.07h2v13.4h6.43V89.1h-8.38Z"/><path class="cls-3" d="M121.12,75.71h-4.58V74.07h11.13v1.64h-4.6V89.1h-1.95Z"/><path class="cls-3" d="M128.43,84.38l-1.56,4.72h-2l5.11-15h2.34l5.13,15h-2.07l-1.61-4.72Zm4.94-1.52-1.49-4.33c-.33-1-.56-1.88-.78-2.74h0c-.22.88-.45,1.8-.75,2.72l-1.48,4.35Z"/><path class="cls-3" d="M153.88,81.43c0,5.16-3.14,7.92-7,7.92s-6.76-3.09-6.76-7.63c0-4.77,3-7.9,7-7.9S153.88,77,153.88,81.43Zm-11.68.24c0,3.22,1.75,6.1,4.81,6.1s4.82-2.83,4.82-6.25c0-3-1.57-6.12-4.8-6.12S142.2,78.38,142.2,81.67Z"/><path class="cls-3" d="M154.72,89.1v-15h2.13l4.82,7.6a42.93,42.93,0,0,1,2.68,4.89l.05,0c-.18-2-.21-3.84-.21-6.17v-6.3H166v15h-2l-4.78-7.62a50,50,0,0,1-2.79-5l-.07,0c.12,1.91.14,3.72.14,6.2V89.1Z"/><path class="cls-3" d="M167.72,74.07h1.95v13.4h6.43V89.1h-8.38Z"/><path class="cls-3" d="M178.53,74.07v15h-2v-15Z"/><path class="cls-3" d="M180.23,89.1v-15h2.14l4.81,7.6a43.11,43.11,0,0,1,2.69,4.89l0,0c-.18-2-.22-3.84-.22-6.17v-6.3h1.83v15h-2l-4.78-7.62a50.15,50.15,0,0,1-2.8-5l-.06,0c.11,1.91.14,3.72.14,6.2V89.1Z"/><path class="cls-3" d="M201,82.05h-5.83v5.44h6.52V89.1h-8.47v-15h8.12v1.62h-6.17v4.76H201Z"/><path class="cls-4" d="M113,189.53h6.51V170h3.3v22.6a6.47,6.47,0,0,1-6.72,6.77H83.65A6.47,6.47,0,0,1,77,192.77V130.83a6.45,6.45,0,0,1,6.62-6.66q16.29,0,32.6,0a6.46,6.46,0,0,1,6.56,6.51c0,2.14,0,4.29,0,6.5h-3.23v-3.12H80.32v55.47H86.8v-1.06c0-3.85.11-7.71,0-11.55a6.65,6.65,0,0,1,7-7c.3,0,.6,0,1.16,0a8.36,8.36,0,0,1-3.12-7.83,7.9,7.9,0,0,1,3.08-5.23,8.24,8.24,0,0,1,11,.82c2.51,2.6,3.75,7.87-.77,12.13a24.1,24.1,0,0,1,3,.33,6.38,6.38,0,0,1,4.9,6.25c0,4,0,8,0,12Zm-22.88,0h19.6c0-4.42,0-8.77,0-13.12a3.17,3.17,0,0,0-3.24-3.15q-6.54-.06-13.07,0a3.15,3.15,0,0,0-3.25,3.14C90,180.73,90.08,185.09,90.08,189.51Zm29.37-58.86a3.27,3.27,0,0,0-3.63-3.21H84c-.21,0-.41,0-.62,0a3.12,3.12,0,0,0-3,3.2ZM80.31,192.88A3.3,3.3,0,0,0,84,196.12h31.86c.2,0,.41,0,.61,0a3.11,3.11,0,0,0,3-3.23ZM95,163.32a4.9,4.9,0,1,0,5-4.8A5,5,0,0,0,95,163.32Z"/><path class="cls-4" d="M117.79,160.14c-1.57,0-3.07,0-4.56,0a1.67,1.67,0,0,1-1.8-1.05,1.69,1.69,0,0,1,.52-1.93c1.77-1.75,3.55-3.5,5.26-5.3a2.54,2.54,0,0,0,.63-1.47c.09-1.12,0-2.25,0-3.37a4.83,4.83,0,0,1,4.85-4.87h19.72A4.84,4.84,0,0,1,147.3,147c0,1.05,0,2.1,0,3.3h1.12c2.9,0,5.79,0,8.69,0a4.82,4.82,0,0,1,4.9,4.91c0,4.13-.1,8.25,0,12.37a5.21,5.21,0,0,1-4.94,5.69c0,1.52,0,3,0,4.57a1.65,1.65,0,0,1-1,1.74,1.69,1.69,0,0,1-2-.49c-1.77-1.79-3.54-3.59-5.36-5.33a2.12,2.12,0,0,0-1.31-.55c-3.3-.05-6.61,0-9.91,0a4.83,4.83,0,0,1-4.95-5c0-1,0-2,0-3.2h-9.3C120.07,165.05,118.24,163.45,117.79,160.14Zm-.69-3.51.12.24h2c1.3,0,1.87.57,1.9,1.84,0,.38,0,.75,0,1.12a1.75,1.75,0,0,0,2,1.93q9.44,0,18.89,0a1.76,1.76,0,0,0,2-2q0-6.17,0-12.35a1.76,1.76,0,0,0-2-2q-9.45,0-18.89,0c-1.36,0-2,.64-2,2s0,2.73,0,4.08a2.41,2.41,0,0,1-.84,2C119.22,154.53,118.17,155.59,117.1,156.63ZM153.58,174l.26-.17c0-.75,0-1.5,0-2.25a1.56,1.56,0,0,1,1.67-1.65c.37,0,.75,0,1.12,0,1.49,0,2.1-.62,2.1-2.12q0-6,0-12.06c0-1.58-.6-2.17-2.15-2.18h-9.3v6.27a4.86,4.86,0,0,1-5.16,5.18h-6.29v2.63c0,1.71.57,2.27,2.26,2.28,3.48,0,6.95,0,10.42,0a3.18,3.18,0,0,1,1.87.77C151.53,171.77,152.53,172.93,153.58,174Z"/><path class="cls-4" d="M145.66,222.27H142.4v-1c0-5.08,0-10.16,0-15.23a6.48,6.48,0,0,1,6.62-6.66h4.44a9.23,9.23,0,0,1-3.7-7.29,8.64,8.64,0,0,1,3.45-7.18A9,9,0,0,1,165.48,186c2.89,3.23,3.6,9.06-1.38,13.38h4.17a6.49,6.49,0,0,1,6.83,6.77v16.07h-3.27V206.55c0-2.6-1.29-3.89-3.9-3.89H149.54c-2.61,0-3.87,1.27-3.88,3.9v15.71ZM164.46,192a5.72,5.72,0,1,0-5.7,5.76A5.81,5.81,0,0,0,164.46,192Z"/><path class="cls-4" d="M101.46,210.79H98.32v-3.16h3.14Z"/><path class="cls-4" d="M101.44,217.34H98.3v-3.15h3.14Z"/><path class="cls-4" d="M104.86,214.16H108v3.14h-3.14Z"/><path class="cls-4" d="M114.54,217.34H111.4v-3.17h3.14Z"/><path class="cls-4" d="M117.92,214.15h3.15v3.17h-3.15Z"/><path class="cls-4" d="M127.66,214.18v3.12h-3.18v-3.12Z"/><path class="cls-4" d="M131,217.33v-3.15h3.16v3.15Z"/><path class="cls-1" d="M663.19,25.74H839.84a11.58,11.58,0,0,1,11.58,11.58v71a0,0,0,0,1,0,0H663.19a0,0,0,0,1,0,0V25.74A0,0,0,0,1,663.19,25.74Z"/><path class="cls-2" d="M663.19,106.67H851.42a0,0,0,0,1,0,0v113.1a11.58,11.58,0,0,1-11.58,11.58H663.19a0,0,0,0,1,0,0V106.67A0,0,0,0,1,663.19,106.67Z"/><path class="cls-3" d="M688.16,60a6.82,6.82,0,0,0,3.47,1c2,0,3.15-1,3.15-2.56s-.81-2.22-2.84-3c-2.45-.87-4-2.16-4-4.26,0-2.35,1.95-4.08,4.88-4.08a6.77,6.77,0,0,1,3.31.73l-.54,1.59a5.62,5.62,0,0,0-2.84-.72c-2.06,0-2.84,1.23-2.84,2.25,0,1.4.91,2.09,3,2.89,2.55,1,3.83,2.22,3.83,4.43s-1.7,4.33-5.26,4.33a7.72,7.72,0,0,1-3.84-1Z"/><path class="cls-3" d="M706,55.29h-5.83v5.43h6.52v1.62h-8.47v-15h8.13v1.62h-6.18v4.76H706Z"/><path class="cls-3" d="M707.93,47.51a20.27,20.27,0,0,1,3.73-.33c2.06,0,3.42.4,4.36,1.24a3.77,3.77,0,0,1,1.18,2.86,4,4,0,0,1-2.84,3.83v.06c1.15.4,1.84,1.48,2.21,3a24.35,24.35,0,0,0,1.16,4.13h-2a21.48,21.48,0,0,1-1-3.6c-.44-2.06-1.26-2.86-3-2.92h-1.84v6.52h-1.94Zm1.94,6.84h2c2.08,0,3.4-1.13,3.4-2.85,0-2-1.41-2.8-3.46-2.81a8.8,8.8,0,0,0-1.92.17Z"/><path class="cls-3" d="M722.37,62.34l-4.92-15h2.11l2.34,7.42c.64,2,1.2,3.86,1.6,5.61h.06c.42-1.74,1-3.63,1.71-5.59l2.54-7.44h2.08l-5.37,15Z"/><path class="cls-3" d="M732.23,47.3v15h-2v-15Z"/><path class="cls-3" d="M744.89,61.86a9.71,9.71,0,0,1-4,.71c-4.24,0-7.41-2.68-7.41-7.61a7.46,7.46,0,0,1,7.84-7.89,8.11,8.11,0,0,1,3.57.66l-.48,1.58a7.09,7.09,0,0,0-3-.62c-3.53,0-5.87,2.26-5.87,6.2,0,3.68,2.12,6,5.77,6a8,8,0,0,0,3.18-.61Z"/><path class="cls-3" d="M748,47.3v15h-1.95v-15Z"/><path class="cls-3" d="M763.05,54.67c0,5.16-3.14,7.91-7,7.91-4,0-6.76-3.08-6.76-7.63,0-4.76,2.95-7.89,7-7.89S763.05,50.2,763.05,54.67Zm-11.68.24c0,3.21,1.75,6.09,4.81,6.09S761,58.17,761,54.76c0-3-1.56-6.12-4.79-6.12S751.37,51.62,751.37,54.91Z"/><path class="cls-3" d="M767.84,47.51a25.22,25.22,0,0,1,4.13-.33c2.78,0,4.78.66,6.09,1.89a6.86,6.86,0,0,1,2.13,5.38A8,8,0,0,1,778,60.3c-1.42,1.4-3.75,2.17-6.66,2.17a29.75,29.75,0,0,1-3.53-.17Zm1.95,13.3a13.78,13.78,0,0,0,2,.09c4.16,0,6.41-2.31,6.41-6.37,0-3.55-2-5.79-6.09-5.79a12.11,12.11,0,0,0-2.27.19Z"/><path class="cls-3" d="M789.25,55.29h-5.83v5.43h6.52v1.62h-8.47v-15h8.12v1.62h-6.17v4.76h5.83Z"/><path class="cls-3" d="M797.15,57.61l-1.55,4.73h-2l5.11-15H801l5.13,15h-2.08l-1.61-4.73Zm4.94-1.52-1.49-4.32c-.32-1-.55-1.88-.77-2.75h-.05c-.22.88-.45,1.8-.75,2.72l-1.48,4.35Z"/><path class="cls-3" d="M807.14,47.51a25.22,25.22,0,0,1,4.13-.33c2.78,0,4.78.66,6.09,1.89a6.86,6.86,0,0,1,2.13,5.38,8,8,0,0,1-2.16,5.85c-1.42,1.4-3.75,2.17-6.66,2.17a29.75,29.75,0,0,1-3.53-.17Zm2,13.3a13.78,13.78,0,0,0,1.95.09c4.16,0,6.41-2.31,6.41-6.37,0-3.55-2-5.79-6.09-5.79a12.11,12.11,0,0,0-2.27.19Z"/><path class="cls-3" d="M825.25,53.92v1.43h-5.5V53.92Z"/><path class="cls-3" d="M690.36,74.07v6.3h7.27v-6.3h2v15h-2v-7h-7.27v7h-2v-15Z"/><path class="cls-3" d="M709.51,82.05h-5.83v5.44h6.52V89.1h-8.47v-15h8.13v1.62h-6.18v4.76h5.83Z"/><path class="cls-3" d="M711.47,74.27a21.38,21.38,0,0,1,3.74-.32c2.06,0,3.42.39,4.36,1.24a3.77,3.77,0,0,1,1.18,2.86,4,4,0,0,1-2.84,3.83v.05c1.15.4,1.84,1.49,2.21,3a25.17,25.17,0,0,0,1.15,4.12h-2a19.09,19.09,0,0,1-1-3.6c-.45-2-1.26-2.85-3-2.91h-1.84V89.1h-1.94Zm1.94,6.85h2c2.08,0,3.39-1.13,3.39-2.86,0-2-1.4-2.8-3.45-2.8a8.91,8.91,0,0,0-1.93.17Z"/><path class="cls-3" d="M730,82.05H724.2v5.44h6.52V89.1h-8.47v-15h8.13v1.62H724.2v4.76H730Z"/><path class="cls-3" d="M732,89.1v-15h2.14l4.82,7.6a44.55,44.55,0,0,1,2.68,4.89l0,0c-.18-2-.21-3.84-.21-6.17v-6.3h1.83v15h-2l-4.78-7.62a50,50,0,0,1-2.79-5l-.07,0c.12,1.91.14,3.72.14,6.2V89.1Z"/><path class="cls-3" d="M756,88.62a9.67,9.67,0,0,1-4,.72c-4.24,0-7.41-2.68-7.41-7.62a7.46,7.46,0,0,1,7.85-7.89,8,8,0,0,1,3.56.67l-.47,1.58a7.14,7.14,0,0,0-3-.62c-3.53,0-5.86,2.25-5.86,6.2,0,3.68,2.12,6,5.76,6a7.79,7.79,0,0,0,3.18-.62Z"/><path class="cls-3" d="M759.11,74.07v15h-2v-15Z"/><path class="cls-3" d="M763.7,84.38l-1.56,4.72h-2l5.11-15h2.34l5.13,15h-2.07L769,84.38Zm4.94-1.52-1.49-4.33c-.33-1-.56-1.88-.78-2.74h0c-.22.88-.45,1.8-.75,2.72l-1.48,4.35Z"/><path class="cls-4" d="M705.24,164.61l19-23.56a2,2,0,0,1,3-.45c2.94,1.86,5.89,3.71,8.81,5.62a13.58,13.58,0,0,0,4.27,1.91c2.86.72,5.69,1.55,8.54,2.29a3.13,3.13,0,0,0,1.52,0c3.13-.86,6.24-1.79,9.37-2.65a8.28,8.28,0,0,1,2.22-.33c4.11,0,8.22,0,12.33,0a4.12,4.12,0,0,0,2-.59c3.22-2,6.39-4,9.58-6.07,1.5-.95,2.35-.79,3.44.63l16.19,21c1.2,1.55,1.12,2.38-.39,3.69-2.83,2.46-5.69,4.89-8.51,7.35a4.2,4.2,0,0,0-1,1.31q-2.88,5.94-5.69,11.9a1.68,1.68,0,0,0-.07,1.24c2.29,4.87-.57,9.89-5.9,10.33a1.19,1.19,0,0,0-.27.07c-1,4.84-2.71,6.53-7.15,7.11-.45,4.24-2.76,6.7-7.08,7.14-1.41,7-6.38,9-12.53,4.75-2,2.35-4.41,3.6-7.53,2.87s-4.83-2.84-5.45-6a7.55,7.55,0,0,1-5.66-1.74,7.31,7.31,0,0,1-2.45-5.27c-5.41-1.51-7.17-3.55-7-8.14a5.44,5.44,0,0,0-.61-.19,7,7,0,0,1-4.3-10.94,1.05,1.05,0,0,0,0-1.51c-2.61-3.46-5.17-7-7.78-10.43a11,11,0,0,0-1.59-1.61c-2.63-2.28-5.29-4.54-7.92-6.83-.51-.44-.95-1-1.42-1.47Zm33.82,23.74a7.28,7.28,0,0,1,6,1.5,7.13,7.13,0,0,1,2.54,5.52,7,7,0,0,1,5.51,2.61,7.32,7.32,0,0,1,1.44,5.87c.14.08.19.14.25.15a7,7,0,0,1,5.09,9.68.86.86,0,0,0,0,.69,3.17,3.17,0,0,0,3.38,1,2.86,2.86,0,0,0,2.05-2.71,3.24,3.24,0,0,0-1.09-2.54c-1.44-1.44-2.92-2.85-4.27-4.37a2.69,2.69,0,0,1-.68-1.92,2,2,0,0,1,3.41-1c1.51,1.46,3,3,4.45,4.48a3,3,0,1,0,4.41-4.1c-2-2.09-4-4.08-6-6.12-.86-.86-1.73-1.71-2.57-2.6a1.69,1.69,0,0,1-.4-2.08,2.62,2.62,0,0,1,1.59-1.22,2.84,2.84,0,0,1,2,.83c2.74,2.66,5.4,5.4,8.08,8.12a3,3,0,1,0,4.35-4.19c-4.06-4.13-8.15-8.23-12.22-12.35a5,5,0,0,1-.77-.89,1.91,1.91,0,0,1,1.63-2.95,3,3,0,0,1,1.77.85c4,4,7.94,8,11.9,12a9.36,9.36,0,0,0,1.09,1,3,3,0,0,0,4.73-2.34,3.38,3.38,0,0,0-1.19-2.59q-11.33-11.3-22.64-22.59a2.68,2.68,0,0,0-1.54-.68c-2.36-.21-4.72-.3-7.08-.5a1.09,1.09,0,0,0-1.22.68c-1.49,2.67-3,5.33-4.52,8a7,7,0,0,1-12.27-6.78c2.29-4.21,4.71-8.36,7.07-12.53.18-.32.34-.66.55-1-1.71-.47-3.31-.86-4.87-1.35a1.2,1.2,0,0,0-1.5.48q-6.57,8.07-13.2,16.1l-4.5,5.5,3.81,5.13,3.8,5.13A7.15,7.15,0,0,1,739.06,188.35Zm47.6-4.15c1.67-3.5,3.25-6.89,4.91-10.24a1.54,1.54,0,0,0-.23-1.91q-7.87-9.93-15.67-19.92a1.83,1.83,0,0,0-1.65-.77c-3.88,0-7.76,0-11.64,0a5.78,5.78,0,0,0-1.55.2q-6.52,1.86-13,3.76a1.51,1.51,0,0,0-.84.58c-2.45,4.27-4.91,8.54-7.25,12.87a3.57,3.57,0,0,0-.13,2.36,2.57,2.57,0,0,0,2.35,1.94,2.94,2.94,0,0,0,3.12-1.6c1.77-3.12,3.55-6.22,5.28-9.35a2.36,2.36,0,0,1,2.5-1.33c3.31.25,6.62.46,9.94.66a3.34,3.34,0,0,1,2.23,1.08q10.38,10.42,20.79,20.8C786,183.62,786.3,183.86,786.66,184.2Zm-52.32-34.35-8-5.06L710,165.06l6.94,6Zm44.65,0,15.67,19.93,6.93-6-14.63-19ZM736.21,203a4.72,4.72,0,0,0,1.52-.7c1.75-1.64,3.47-3.32,5.09-5.09a3,3,0,0,0-4.31-4.11q-2.5,2.37-4.88,4.88a2.81,2.81,0,0,0-.47,3.3C733.68,202.35,734.62,202.88,736.21,203Zm6.82,7.26a6.16,6.16,0,0,0,1.74-.79c1.77-1.66,3.52-3.36,5.16-5.15a3,3,0,0,0-4.3-4.11q-2.55,2.4-5,5a2.8,2.8,0,0,0-.46,3.22A3.22,3.22,0,0,0,743,210.22Zm5,2.84a3,3,0,0,0,1.6,2.92,2.62,2.62,0,0,0,3.06-.21,26.06,26.06,0,0,0,3.18-3.21,2.88,2.88,0,0,0-.25-3.72,2.75,2.75,0,0,0-3.58-.56,30.67,30.67,0,0,0-3.63,3.58C748.09,212.2,748.09,212.83,748,213.06ZM729.73,195a5.62,5.62,0,0,0,1.68-.7,25.59,25.59,0,0,0,3-3,3,3,0,0,0-.34-4.09,3,3,0,0,0-4.11.13c-.86.81-1.71,1.64-2.51,2.51a2.88,2.88,0,0,0-.51,3.29A3.13,3.13,0,0,0,729.73,195Z"/><path class="cls-4" d="M744.75,143.7a5.5,5.5,0,0,1-1.21-.73q-6.64-6.6-13.25-13.24a2,2,0,1,1,2.81-2.85q6.64,6.6,13.25,13.24a2,2,0,0,1,.58,2.32A2.1,2.1,0,0,1,744.75,143.7Z"/><path class="cls-4" d="M766.46,144c-.66-.51-1.4-.82-1.67-1.36a3.64,3.64,0,0,1,0-1.94c0-.25.34-.47.55-.68l13-13a2.13,2.13,0,0,1,2.36-.76,2,2,0,0,1,1,3.06,6.08,6.08,0,0,1-.6.65q-6.37,6.38-12.77,12.74A13.11,13.11,0,0,1,766.46,144Z"/><path class="cls-4" d="M757.76,136.1c0,1.77,0,3.54,0,5.32,0,1.44-.75,2.27-2,2.26s-2-.83-2-2.21q0-5.37,0-10.74a2,2,0,1,1,4,.05C757.77,132.55,757.76,134.33,757.76,136.1Z"/><path class="cls-4" d="M757.76,122.52a2,2,0,1,1-2-1.94A1.93,1.93,0,0,1,757.76,122.52Z"/><path class="cls-1" d="M452.83,25.74H628.57a12.48,12.48,0,0,1,12.48,12.48V108.3a0,0,0,0,1,0,0H452.83a0,0,0,0,1,0,0V25.74A0,0,0,0,1,452.83,25.74Z"/><path class="cls-2" d="M452.83,106.67H641.06a0,0,0,0,1,0,0v112.2a12.48,12.48,0,0,1-12.48,12.48H452.83a0,0,0,0,1,0,0V106.67A0,0,0,0,1,452.83,106.67Z"/><path class="cls-3" d="M468.49,50.46a6.79,6.79,0,0,0,3.47,1c2,0,3.15-1,3.15-2.56s-.81-2.21-2.84-3c-2.46-.87-4-2.16-4-4.27,0-2.34,1.95-4.08,4.88-4.08a6.89,6.89,0,0,1,3.31.73l-.54,1.59a5.75,5.75,0,0,0-2.84-.71c-2.06,0-2.84,1.22-2.84,2.25,0,1.39.91,2.08,3,2.88,2.55,1,3.83,2.23,3.83,4.43s-1.7,4.34-5.26,4.34a7.72,7.72,0,0,1-3.84-1Z"/><path class="cls-3" d="M487.18,45.78h-5.83v5.43h6.52v1.61H479.4v-15h8.13v1.62h-6.18v4.76h5.83Z"/><path class="cls-3" d="M490,38a20.38,20.38,0,0,1,3.74-.33c2.06,0,3.41.39,4.35,1.24a3.74,3.74,0,0,1,1.18,2.86,4,4,0,0,1-2.83,3.83v0c1.14.4,1.84,1.49,2.2,3.05a24.83,24.83,0,0,0,1.16,4.12h-2a20.27,20.27,0,0,1-1-3.6c-.45-2-1.26-2.85-3-2.91H492v6.51H490ZM492,44.84h2c2.07,0,3.39-1.13,3.39-2.86,0-1.95-1.41-2.8-3.46-2.8a8.8,8.8,0,0,0-1.92.17Z"/><path class="cls-3" d="M505.38,52.82l-4.93-15h2.11l2.34,7.41c.65,2,1.2,3.86,1.61,5.61h.05c.42-1.74,1-3.63,1.71-5.58l2.55-7.44h2.07l-5.37,15Z"/><path class="cls-3" d="M516.13,37.79v15h-2v-15Z"/><path class="cls-3" d="M529.68,52.34a9.5,9.5,0,0,1-4,.72c-4.24,0-7.42-2.68-7.42-7.62a7.47,7.47,0,0,1,7.85-7.89,8.07,8.07,0,0,1,3.57.67l-.48,1.58a7.09,7.09,0,0,0-3-.62c-3.53,0-5.87,2.25-5.87,6.2,0,3.68,2.12,6,5.77,6a7.83,7.83,0,0,0,3.18-.62Z"/><path class="cls-3" d="M533.72,37.79v15h-2v-15Z"/><path class="cls-3" d="M549.63,45.16c0,5.15-3.15,7.91-7,7.91-4,0-6.76-3.09-6.76-7.63,0-4.76,3-7.9,7-7.9S549.63,40.69,549.63,45.16ZM538,45.39c0,3.22,1.74,6.1,4.81,6.1s4.81-2.83,4.81-6.25c0-3-1.56-6.12-4.79-6.12S538,42.1,538,45.39Z"/><path class="cls-3" d="M556.2,38a25.22,25.22,0,0,1,4.13-.33c2.78,0,4.77.66,6.09,1.89a6.89,6.89,0,0,1,2.13,5.38,8,8,0,0,1-2.16,5.85C565,52.19,562.64,53,559.73,53a31.91,31.91,0,0,1-3.53-.17Zm1.95,13.3a13.78,13.78,0,0,0,2,.09c4.16,0,6.4-2.31,6.4-6.38,0-3.55-2-5.79-6.08-5.79a11.09,11.09,0,0,0-2.27.2Z"/><path class="cls-3" d="M578.5,45.78h-5.83v5.43h6.52v1.61h-8.47v-15h8.12v1.62h-6.17v4.76h5.83Z"/><path class="cls-3" d="M471.18,69.22,469.63,74h-2l5.12-15h2.33l5.14,15h-2.08l-1.61-4.73Zm4.94-1.52-1.49-4.32c-.33-1-.55-1.88-.78-2.75h-.05c-.21.88-.45,1.8-.74,2.72l-1.49,4.35Z"/><path class="cls-3" d="M483.21,60.55h-4.58V58.91h11.13v1.64h-4.6V74h-2Z"/><path class="cls-3" d="M498.87,66.9H493v5.43h6.52V74h-8.47v-15h8.13v1.62H493v4.76h5.83Z"/><path class="cls-3" d="M501.73,74v-15h2.13l4.82,7.6a42.18,42.18,0,0,1,2.68,4.9l.05,0c-.17-2-.21-3.84-.21-6.17v-6.3H513V74h-2l-4.78-7.62a48.35,48.35,0,0,1-2.8-5l-.07,0c.12,1.91.15,3.72.15,6.21V74Z"/><path class="cls-3" d="M526.58,73.46a9.5,9.5,0,0,1-4,.72c-4.24,0-7.42-2.68-7.42-7.62A7.47,7.47,0,0,1,523,58.68a8.11,8.11,0,0,1,3.57.66l-.48,1.58a7.09,7.09,0,0,0-3-.62c-3.53,0-5.87,2.25-5.87,6.2,0,3.68,2.12,6,5.76,6a8,8,0,0,0,3.19-.61Z"/><path class="cls-3" d="M530.62,58.91V74h-2v-15Z"/><path class="cls-3" d="M546.53,66.28c0,5.16-3.15,7.91-7,7.91-4,0-6.76-3.09-6.76-7.63,0-4.76,3-7.89,7-7.89S546.53,61.81,546.53,66.28Zm-11.68.24c0,3.21,1.74,6.09,4.81,6.09s4.81-2.83,4.81-6.25c0-3-1.56-6.11-4.79-6.11S534.85,63.23,534.85,66.52Zm8.06-11.07-2.84,2.6h-1.59l2.06-2.6Z"/><path class="cls-3" d="M548.7,74v-15h2.14l4.81,7.6a42.35,42.35,0,0,1,2.69,4.9l0,0c-.18-2-.22-3.84-.22-6.17v-6.3H560V74h-2l-4.78-7.62a50.27,50.27,0,0,1-2.8-5l-.06,0c.11,1.91.14,3.72.14,6.21V74Z"/><path class="cls-3" d="M569.39,58.91V74h-1.95v-15Z"/><path class="cls-3" d="M572.43,74v-15h2.14l4.82,7.6a43.74,43.74,0,0,1,2.68,4.9l0,0c-.18-2-.21-3.84-.21-6.17v-6.3h1.83V74h-2L577,66.33a50.12,50.12,0,0,1-2.79-5l-.07,0c.12,1.91.14,3.72.14,6.21V74Z"/><path class="cls-3" d="M586.52,71.58a6.82,6.82,0,0,0,3.47,1c2,0,3.16-1,3.16-2.56s-.82-2.21-2.85-3c-2.45-.87-4-2.16-4-4.27,0-2.34,1.94-4.07,4.87-4.07a7,7,0,0,1,3.32.72L594,61a5.66,5.66,0,0,0-2.84-.72c-2.07,0-2.85,1.23-2.85,2.25,0,1.4.92,2.08,3,2.89,2.55,1,3.84,2.22,3.84,4.42s-1.7,4.34-5.26,4.34a7.76,7.76,0,0,1-3.85-1Z"/><path class="cls-3" d="M600.31,60.55h-4.58V58.91h11.13v1.64h-4.6V74h-2Z"/><path class="cls-3" d="M610.14,58.91V74h-1.95v-15Z"/><path class="cls-3" d="M617.67,65.52V67h-5.51V65.52Z"/><path class="cls-3" d="M471.61,81.67H467V80h11.13v1.64h-4.6v13.4h-1.95Z"/><path class="cls-3" d="M481.43,80v8.91c0,3.36,1.49,4.78,3.52,4.78,2.21,0,3.66-1.47,3.66-4.78V80h1.95V88.8c0,4.63-2.43,6.51-5.69,6.51-3.07,0-5.39-1.75-5.39-6.42V80Z"/><path class="cls-3" d="M504.1,94.59a9.72,9.72,0,0,1-4,.71c-4.23,0-7.41-2.68-7.41-7.61a7.46,7.46,0,0,1,7.85-7.89,8.11,8.11,0,0,1,3.57.66L503.65,82a7.09,7.09,0,0,0-3-.62c-3.54,0-5.87,2.26-5.87,6.2,0,3.68,2.12,6,5.76,6a8,8,0,0,0,3.19-.61Z"/><path class="cls-3" d="M508.14,80v15h-1.95V80Z"/><path class="cls-3" d="M524,87.4c0,5.16-3.14,7.91-7,7.91-4,0-6.76-3.08-6.76-7.63,0-4.76,2.95-7.89,7-7.89S524,82.93,524,87.4Zm-11.68.24c0,3.21,1.75,6.09,4.81,6.09S522,90.9,522,87.48c0-3-1.56-6.11-4.79-6.11S512.36,84.35,512.36,87.64Z"/><path class="cls-3" d="M526.22,95.07V80h2.13l4.82,7.6a42.18,42.18,0,0,1,2.68,4.9l0,0c-.17-2-.21-3.84-.21-6.17V80h1.83v15h-2l-4.78-7.62a48.35,48.35,0,0,1-2.8-5l-.07,0c.12,1.91.15,3.72.15,6.21v6.43Z"/><path class="cls-3" d="M543,90.34l-1.55,4.73h-2l5.12-15h2.33l5.14,15h-2.08l-1.61-4.73Zm4.94-1.52-1.49-4.32c-.33-1-.55-1.88-.78-2.75h0c-.21.88-.45,1.8-.74,2.72l-1.48,4.35Z"/><path class="cls-3" d="M553.88,80h2v13.4h6.43v1.64h-8.38Z"/><g id="sAiOKn"><path class="cls-4" d="M521,124.33a27,27,0,0,1,2.82.86,8.68,8.68,0,0,1,5.5,8.09c.12,2.52.06,5.05,0,7.58a8.78,8.78,0,0,1-2.67,6.25,1.22,1.22,0,0,0-.42,1.26c.12.58.09,1.19.24,1.76a3.31,3.31,0,0,0,.65,1.21c1.52,1.79,3.74,2.38,5.76,3.31.92.42,1.89.77,2.8,1.23a7.39,7.39,0,0,1,4.38,6.66c.06,1.39,0,2.77,0,4.26.73,0,1.35,0,2,0a3.39,3.39,0,0,1,3.49,4.19c-.94,5.49-1.89,11-2.9,16.47a4.58,4.58,0,0,1-4.72,3.83q-14.57,0-29.12,0a3.41,3.41,0,0,1-3.8-3c-.21-.88-.42-1.76-.64-2.64-.38-1.58.13-2.26,1.75-2.27,1.87,0,3.74,0,5.61,0,.72,0,1-.15,1.14-.94.64-4,1.34-7.92,2.05-11.88a4.34,4.34,0,0,1,2.54-3.3.81.81,0,0,0,.56-.89c0-1.72,0-3.45,0-5.4l-2,1.5c-.52.39-1,.78-1.58,1.15a1.41,1.41,0,0,1-2.42-.8c-.69-2.1-1.35-4.2-2-6.3a4.7,4.7,0,0,0-.22-.53c-2,.87-3.95,1.63-5.83,2.6a4.75,4.75,0,0,0-2.48,4.53c0,5.57,0,11.13,0,16.69,0,1-.42,1.51-1.17,1.6-.94.1-1.54-.5-1.55-1.57V170c0-2.33,0-4.66,0-7a7.51,7.51,0,0,1,4.7-7.24c1.72-.79,3.46-1.58,5.23-2.25a11,11,0,0,0,3.34-2.43,1.51,1.51,0,0,0,.33-.83,18.7,18.7,0,0,0,.26-2.11,1.13,1.13,0,0,0-.25-.8,9.49,9.49,0,0,1-2.89-7.2c0-2,0-3.91,0-5.87,0-5.34,2.83-8.75,8.06-9.77a1.34,1.34,0,0,0,.29-.15Zm9.68,45.28H519.57a1.67,1.67,0,0,0-1.91,1.52q-1.39,7.89-2.76,15.8c-.23,1.37,0,1.62,1.37,1.62h21.37a2.07,2.07,0,0,0,2.42-1.95q1.41-7.89,2.77-15.8c.18-1,0-1.19-1.05-1.2Zm-4-32.18c-3.83.63-7-.22-9.34-3.2a5.4,5.4,0,0,1-5.29,1.69,41,41,0,0,0,.37,6.13,7.32,7.32,0,0,0,5.2,5.58c3.57,1.17,8.14-1.9,8.79-5.72A40.09,40.09,0,0,0,526.74,137.43ZM520.89,161v5.73h16.48c0-1.55.11-3.06,0-4.54a4.44,4.44,0,0,0-2.6-3.74c-1.84-.88-3.72-1.65-5.63-2.48-.1.28-.19.51-.27.75-.65,2-1.29,4-2,6.06-.44,1.32-1.34,1.59-2.48.77Zm-8.51-27.93c1.8.35,2.83-.18,3.66-1.89.29-.6.64-1.07,1.38-1.07s1.1.47,1.37,1.07c1.28,2.91,4.21,4.15,7.42,3.49a.75.75,0,0,0,.44-.56,6.4,6.4,0,0,0-4.34-6.59,8.91,8.91,0,0,0-5.92,0A5.91,5.91,0,0,0,512.38,133.09Zm11.24,16.63a9.72,9.72,0,0,1-8.56-.09c.07.7-.08,1.41.21,1.77,1.31,1.63,2.74,3.15,4.18,4.77,1.24-1.41,2.4-2.81,3.66-4.11A2,2,0,0,0,523.62,149.72Zm-10.29,3.72c-.37.52-1,1-.94,1.36.47,1.87,1.11,3.7,1.72,5.62L517.4,158Zm12.08.14L521.49,158l3.27,2.39,1.47-4.62C526.65,154.46,526.66,154.46,525.41,153.58Zm-13.26,32.61h-4.74a14.6,14.6,0,0,0,.44,1.76c.08.24.37.57.59.58,1.2.05,2.4,0,3.55,0Z"/><path class="cls-4" d="M585.94,210.7l-.21.25a1.32,1.32,0,0,1-1.57.54,1.34,1.34,0,0,1-.95-1.44c0-2.87,0-5.74,0-8.6a5.82,5.82,0,0,0-4.21-6.08c-3.58-1.33-7.12-2.79-10.75-4a18.62,18.62,0,0,0-13.76.66c-2.79,1.25-5.65,2.31-8.48,3.47a5.6,5.6,0,0,0-3.7,5.47c0,2.9,0,5.79,0,8.69a2.77,2.77,0,0,1-.15,1,1.23,1.23,0,0,1-1.4.85,1.26,1.26,0,0,1-1.19-1.14c0-.11,0-.23,0-.34,0-3.23-.09-6.47.07-9.7a8,8,0,0,1,5.32-7.35c3.08-1.29,6.18-2.51,9.27-3.8a1.25,1.25,0,0,0,.69-.79c.19-1.35.31-2.71.37-4.06a1.63,1.63,0,0,0-.41-1.1,10.14,10.14,0,0,1-3.17-7.29c0-2.95-.14-5.91.07-8.85a9.35,9.35,0,0,1,5.61-8.31,12.17,12.17,0,0,1,10.77,0c3.77,1.79,5.52,5,5.68,9.08.11,2.69.07,5.39,0,8.09a9.93,9.93,0,0,1-3.1,7.14,1.39,1.39,0,0,0-.5,1.32c.19,1.4.3,2.82.38,4.23,0,.55.33.71.75.87,3,1.1,5.94,2.22,8.9,3.33a8.32,8.32,0,0,1,5.54,6.46,1.34,1.34,0,0,0,.15.29Zm-31.39-38.78h-.13v3.66a7.88,7.88,0,0,0,2.62,6,2.71,2.71,0,0,0,2,.79q3.71,0,7.41,0a2.73,2.73,0,0,0,2-.76,7.14,7.14,0,0,0,2.53-4.94c.11-2.86.13-5.73.08-8.59a7.19,7.19,0,0,0-3.63-6.51,9.84,9.84,0,0,0-5.76-1.08,7.25,7.25,0,0,0-7.06,6.38A39.26,39.26,0,0,0,554.55,171.92Zm3.14,16.18a24.51,24.51,0,0,1,10,.25c0-.42,0-.75,0-1.09s-.08-.67-.12-1c-.15-1.17-.16-1.18-1.37-1.19-2,0-4,0-6,0s-2.3-.47-2.39,2.12A8.52,8.52,0,0,1,557.69,188.1Z"/><path class="cls-4" d="M585.94,149.38c-.06.15-.13.3-.19.46a4.21,4.21,0,0,1-4.14,3.06q-15.45,0-30.89,0a4.21,4.21,0,0,1-4.3-4.32,21.69,21.69,0,0,1,0-2.55,1.43,1.43,0,0,0-1-1.63c-1.82-.84-3.58-1.81-5.38-2.7a3,3,0,0,1,0-5.57c1.9-1,3.78-1.94,5.68-2.88a1,1,0,0,0,.65-1c0-.91,0-1.82,0-2.72a4.69,4.69,0,0,1,3.26-5.16h33.05a5.08,5.08,0,0,1,3.23,3.41Zm-45.13-10.47.87.47c2.11,1.09,4.21,2.19,6.34,3.25a1.8,1.8,0,0,1,1.14,1.88c-.06,1.25,0,2.5,0,3.75s.55,1.83,1.86,1.83h30.31c1.32,0,1.89-.52,1.89-1.82q0-9.66,0-19.32c0-1.34-.6-1.89-1.94-1.89H551.05c-1.33,0-1.9.57-1.91,1.92s0,2.9,0,4.34a1.82,1.82,0,0,1-1.16,1.87c-2.12,1.06-4.23,2.17-6.34,3.26Z"/><path class="cls-4" d="M585.94,127.74a5.08,5.08,0,0,0-3.23-3.41h3.23Z"/><path class="cls-4" d="M509.45,175.44c0,1.47,0,2.95,0,4.42,0,1-.53,1.57-1.4,1.55s-1.32-.56-1.33-1.52q0-4.38,0-8.76a1.38,1.38,0,1,1,2.73,0C509.46,172.55,509.45,174,509.45,175.44Z"/><path class="cls-4" d="M531.43,179a1.32,1.32,0,0,1-1.36,1.4,1.36,1.36,0,1,1,0-2.72A1.29,1.29,0,0,1,531.43,179Z"/><path class="cls-4" d="M566.48,134h-9.87c-1.12,0-1.63-.39-1.69-1.25a1.32,1.32,0,0,1,1.25-1.52h20.24c1.3,0,2,1,1.47,2.08a1.5,1.5,0,0,1-1.53.71h-9.87Z"/><path class="cls-4" d="M566.5,137.22c3.31,0,6.63,0,10,0,1.28,0,2,1,1.44,2a1.47,1.47,0,0,1-1.49.76H556.58c-.78,0-1.43-.2-1.63-1.05-.25-1,.37-1.72,1.59-1.72Z"/><path class="cls-4" d="M562.26,146h-5.7c-1.14,0-1.64-.43-1.64-1.36s.53-1.38,1.64-1.39h11.57c1,0,1.59.49,1.62,1.34s-.55,1.41-1.62,1.41C566.17,146,564.22,146,562.26,146Z"/></g><polyline class="cls-4" points="460.36 0.53 439.32 21.57 418.28 0.53"/><path class="cls-2" d="M1.06,65.28V1.06H823.78c50,0,63,35.68,63,63"/></g></g></svg>