<svg xmlns="http://www.w3.org/2000/svg" viewBox="0 0 1748.76 1581.36"><defs><style>.cls-1{fill:#fefefe;}</style></defs><title>isologo</title><g id="Capa_2" data-name="Capa 2"><g id="Capa_1-2" data-name="Capa 1"><path class="cls-1" d="M888.77,691s-108.43-176.7-160-263.75c-12.52-21.14-26.61-30.17-51.56-28.78-38.78,2.15-77.77.57-122.33.57,7.77,14.52,156,254.62,226.11,363.58,14.49,22.51,17.12,36.55-2.69,58.7q-326.92,365.37-651.3,733c-34.94,39.57-77.37,14.72-127,27,16.49-20.29,25-31.58,34.3-42.08Q354.78,1179,676.12,819.48C699,794,698.06,777.9,680.6,750.85,597.87,622.68,424.25,343.4,414.17,326.13c53.72,0,257.23,1.35,311.19-.62,24.84-.9,39.14,7.39,51.57,28.62,39.38,67.28,80.71,133.41,124.22,204.8,49.68-56.2,93.94-110.32,140.77-161.48,76.87-84,108.77-45.49,162.6-64.94C1102.22,448,888.77,691,888.77,691Z"/><path class="cls-1" d="M965.09,784.3l410.72-472C1452.94,223.64,1534,138,1605.68,45.2,1678.6-29.45,1706.83,21,1748.76,0L1063,790.5c97.52,151.58,194.24,301.92,295.34,459.05-116.59,0-225.36.63-334.08-1.1-9.55-.15-21.22-14.22-27.89-24.45-42.64-65.45-84.16-131.64-129.42-202.91-48.23,57-94.35,110.53-139.54,164.88-74.12,89.13-124.83,45.84-161.49,60.73l312-357.41c55.37,88.59,109,172.46,160.32,257.75,14.37,23.9,30.31,33.4,58.1,31.52,37.44-2.54,75.18-.63,121.73-.63Z"/></g></g></svg>